<svg xmlns="http://www.w3.org/2000/svg" xmlns:xlink="http://www.w3.org/1999/xlink" contentStyleType="text/css" height="740px" preserveAspectRatio="none" style="width:826px;height:740px;background:#FFFFFF;" version="1.1" viewBox="0 0 826 740" width="826px" zoomAndPan="magnify"><defs/><g><!--entity User Database--><g id="elem_User Database"><polygon fill="#F1F1F1" points="48.8,471.5,58.8,461.5,191.9611,461.5,191.9611,497.7969,181.9611,507.7969,48.8,507.7969,48.8,471.5" style="stroke:#181818;stroke-width:0.5;"/><line style="stroke:#181818;stroke-width:0.5;" x1="181.9611" x2="191.9611" y1="471.5" y2="461.5"/><line style="stroke:#181818;stroke-width:0.5;" x1="48.8" x2="181.9611" y1="471.5" y2="471.5"/><line style="stroke:#181818;stroke-width:0.5;" x1="181.9611" x2="181.9611" y1="471.5" y2="507.7969"/><text fill="#000000" font-family="sans-serif" font-size="14" lengthAdjust="spacing" textLength="103.1611" x="63.8" y="494.4951">User Database</text></g><!--entity Complaint Database--><g id="elem_Complaint Database"><polygon fill="#F1F1F1" points="444.96,686.81,454.96,676.81,627.7969,676.81,627.7969,713.1069,617.7969,723.1069,444.96,723.1069,444.96,686.81" style="stroke:#181818;stroke-width:0.5;"/><line style="stroke:#181818;stroke-width:0.5;" x1="617.7969" x2="627.7969" y1="686.81" y2="676.81"/><line style="stroke:#181818;stroke-width:0.5;" x1="444.96" x2="617.7969" y1="686.81" y2="686.81"/><line style="stroke:#181818;stroke-width:0.5;" x1="617.7969" x2="617.7969" y1="686.81" y2="723.1069"/><text fill="#000000" font-family="sans-serif" font-size="14" lengthAdjust="spacing" textLength="142.8369" x="459.96" y="709.8051">Complaint Database</text></g><!--entity IRCTC Passenger--><g id="elem_IRCTC Passenger"><ellipse cx="305.3804" cy="14" fill="#454645" rx="8" ry="8" style="stroke:#454645;stroke-width:0.5;"/><path d="M305.3804,22 L305.3804,49 M292.3804,30 L318.3804,30 M305.3804,49 L292.3804,64 M305.3804,49 L318.3804,64 " fill="none" style="stroke:#454645;stroke-width:0.5;"/><text fill="#454645" font-family="sans-serif" font-size="14" lengthAdjust="spacing" textLength="118.7607" x="246" y="78.4951">IRCTC Passenger</text></g><!--entity IRCTC Complaint Officer--><g id="elem_IRCTC Complaint Officer"><ellipse cx="484.3792" cy="14" fill="#454645" rx="8" ry="8" style="stroke:#454645;stroke-width:0.5;"/><path d="M484.3792,22 L484.3792,49 M471.3792,30 L497.3792,30 M484.3792,49 L471.3792,64 M484.3792,49 L497.3792,64 " fill="none" style="stroke:#454645;stroke-width:0.5;"/><text fill="#454645" font-family="sans-serif" font-size="14" lengthAdjust="spacing" textLength="169.2783" x="399.74" y="78.4951">IRCTC Complaint Officer</text></g><g id="elem_Web Application"><ellipse cx="394.3817" cy="159.8323" fill="#F1F1F1" rx="78.1617" ry="18.0323" style="stroke:#181818;stroke-width:0.5;"/><text fill="#000000" font-family="sans-serif" font-size="14" lengthAdjust="spacing" textLength="114.0166" x="334.987" y="163.4172">Web Application</text></g><g id="elem_User Authentication Service"><ellipse cx="120.3807" cy="266.9761" fill="#F1F1F1" rx="114.3807" ry="25.2761" style="stroke:#181818;stroke-width:0.5;"/><text fill="#000000" font-family="sans-serif" font-size="14" lengthAdjust="spacing" textLength="195.3232" x="22.7191" y="269.8228">User Authentication Service</text></g><g id="elem_Complaint Registration Service"><ellipse cx="394.3846" cy="266.9829" fill="#F1F1F1" rx="124.6646" ry="27.3329" style="stroke:#181818;stroke-width:0.5;"/><text fill="#000000" font-family="sans-serif" font-size="14" lengthAdjust="spacing" textLength="217.2803" x="285.7445" y="269.8296">Complaint Registration Service</text></g><g id="elem_User Repository"><ellipse cx="120.3779" cy="377.9856" fill="#F1F1F1" rx="77.1279" ry="17.8256" style="stroke:#181818;stroke-width:0.5;"/><text fill="#000000" font-family="sans-serif" font-size="14" lengthAdjust="spacing" textLength="111.4326" x="61.8459" y="381.6853">User Repository</text></g><g id="elem_Complaint Repository"><ellipse cx="396.3848" cy="377.993" fill="#F1F1F1" rx="94.1648" ry="21.233" style="stroke:#181818;stroke-width:0.5;"/><text fill="#000000" font-family="sans-serif" font-size="14" lengthAdjust="spacing" textLength="151.1084" x="320.8306" y="380.8396">Complaint Repository</text></g><g id="elem_Complaint Officer interface"><ellipse cx="410.376" cy="484.6492" fill="#F1F1F1" rx="111.796" ry="24.7592" style="stroke:#181818;stroke-width:0.5;"/><text fill="#000000" font-family="sans-serif" font-size="14" lengthAdjust="spacing" textLength="189.7588" x="315.4966" y="487.4959">Complaint Officer interface</text></g><g id="elem_Scheduled Categorization Service"><ellipse cx="687.3783" cy="266.9797" fill="#F1F1F1" rx="133.5983" ry="29.1197" style="stroke:#181818;stroke-width:0.5;"/><text fill="#000000" font-family="sans-serif" font-size="14" lengthAdjust="spacing" textLength="236.1611" x="569.2977" y="269.8263">Scheduled Categorization Service</text></g><g id="elem_Status Update Service"><ellipse cx="417.3789" cy="593.1078" fill="#F1F1F1" rx="96.3389" ry="21.6678" style="stroke:#181818;stroke-width:0.5;"/><text fill="#000000" font-family="sans-serif" font-size="14" lengthAdjust="spacing" textLength="155.9551" x="339.4014" y="595.9545">Status Update Service</text></g><g id="elem_Complaint Assignment"><ellipse cx="686.3791" cy="377.9938" fill="#F1F1F1" rx="97.4691" ry="21.8938" style="stroke:#181818;stroke-width:0.5;"/><text fill="#000000" font-family="sans-serif" font-size="14" lengthAdjust="spacing" textLength="158.4639" x="607.1472" y="380.8405">Complaint Assignment</text></g><g id="elem_Complaint Categorization"><ellipse cx="658.3823" cy="593.1145" fill="#F1F1F1" rx="106.5223" ry="23.7045" style="stroke:#181818;stroke-width:0.5;"/><text fill="#000000" font-family="sans-serif" font-size="14" lengthAdjust="spacing" textLength="178.3359" x="569.2143" y="595.9611">Complaint Categorization</text></g><!--link IRCTC Passenger to Web Application--><g id="link_IRCTC Passenger_Web Application"><path d="M334.52,82.03 C350.24,102.19 365.182,121.3573 377.432,137.0773 " fill="none" id="IRCTC Passenger-to-Web Application" style="stroke:#454645;stroke-width:1.0;"/><polygon fill="#454645" points="381.12,141.81,378.7431,132.2523,378.0467,137.8661,372.4328,137.1696,381.12,141.81" style="stroke:#454645;stroke-width:1.0;"/></g><!--link IRCTC Complaint Officer to Web Application--><g id="link_IRCTC Complaint Officer_Web Application"><path d="M454.91,82.03 C439.02,102.19 423.8941,121.3777 411.5041,137.0977 " fill="none" id="IRCTC Complaint Officer-to-Web Application" style="stroke:#454645;stroke-width:1.0;"/><polygon fill="#454645" points="407.79,141.81,416.5026,137.2176,410.8851,137.8831,410.2196,132.2655,407.79,141.81" style="stroke:#454645;stroke-width:1.0;"/></g><!--link Web Application to User Authentication Service--><g id="link_Web Application_User Authentication Service"><path d="M355.41,175.78 C308.58,193.75 235.2415,221.8999 181.9115,242.3699 " fill="none" id="Web Application-to-User Authentication Service" style="stroke:#454645;stroke-width:1.0;"/><polygon fill="#454645" points="176.31,244.52,186.1457,245.0292,180.9779,242.7283,183.2789,237.5605,176.31,244.52" style="stroke:#454645;stroke-width:1.0;"/></g><!--link Web Application to Complaint Registration Service--><g id="link_Web Application_Complaint Registration Service"><path d="M394.38,178.19 C394.38,194.87 394.38,214.31 394.38,233.52 " fill="none" id="Web Application-to-Complaint Registration Service" style="stroke:#454645;stroke-width:1.0;"/><polygon fill="#454645" points="394.38,239.52,398.38,230.52,394.38,234.52,390.38,230.52,394.38,239.52" style="stroke:#454645;stroke-width:1.0;"/></g><!--link User Authentication Service to User Repository--><g id="link_User Authentication Service_User Repository"><path d="M120.38,292.72 C120.38,313.19 120.38,335.76 120.38,353.81 " fill="none" id="User Authentication Service-to-User Repository" style="stroke:#454645;stroke-width:1.0;"/><polygon fill="#454645" points="120.38,359.81,124.38,350.81,120.38,354.81,116.38,350.81,120.38,359.81" style="stroke:#454645;stroke-width:1.0;"/></g><!--link Complaint Registration Service to Complaint Repository--><g id="link_Complaint Registration Service_Complaint Repository"><path d="M394.87,294.65 C395.22,313.68 395.5702,332.911 395.8902,350.401 " fill="none" id="Complaint Registration Service-to-Complaint Repository" style="stroke:#454645;stroke-width:1.0;"/><polygon fill="#454645" points="396,356.4,399.8347,347.3283,395.9085,351.4008,391.836,347.4747,396,356.4" style="stroke:#454645;stroke-width:1.0;"/></g><!--link User Repository to User Database--><g id="link_User Repository_User Database"><path d="M120.38,396.27 C120.38,414.04 120.38,435.78 120.38,455.22 " fill="none" id="User Repository-to-User Database" style="stroke:#454645;stroke-width:1.0;"/><polygon fill="#454645" points="120.38,461.22,124.38,452.22,120.38,456.22,116.38,452.22,120.38,461.22" style="stroke:#454645;stroke-width:1.0;"/></g><!--link Complaint Repository to Complaint Officer interface--><g id="link_Complaint Repository_Complaint Officer interface"><path d="M399.15,399.67 C401.46,416.94 403.9529,435.6432 406.3829,453.7732 " fill="none" id="Complaint Repository-to-Complaint Officer interface" style="stroke:#454645;stroke-width:1.0;"/><polygon fill="#454645" points="407.18,459.72,409.949,450.2684,406.5158,454.7643,402.0199,451.3311,407.18,459.72" style="stroke:#454645;stroke-width:1.0;"/></g><!--link Web Application to Scheduled Categorization Service--><g id="link_Web Application_Scheduled Categorization Service"><path d="M435.43,175.56 C483.07,192.66 556.7229,219.0827 613.6329,239.5127 " fill="none" id="Web Application-to-Scheduled Categorization Service" style="stroke:#454645;stroke-width:1.0;"/><polygon fill="#454645" points="619.28,241.54,612.1608,234.7344,614.574,239.8506,609.4578,242.2639,619.28,241.54" style="stroke:#454645;stroke-width:1.0;"/></g><!--link Complaint Officer interface to Status Update Service--><g id="link_Complaint Officer interface_Status Update Service"><path d="M411.97,509.8 C413.19,528.33 414.4563,547.6529 415.6163,565.2929 " fill="none" id="Complaint Officer interface-to-Status Update Service" style="stroke:#454645;stroke-width:1.0;"/><polygon fill="#454645" points="416.01,571.28,419.4108,562.0369,415.6819,566.2908,411.4281,562.5619,416.01,571.28" style="stroke:#454645;stroke-width:1.0;"/></g><!--link Scheduled Categorization Service to Complaint Assignment--><g id="link_Scheduled Categorization Service_Complaint Assignment"><path d="M687.12,296.34 C686.95,314.88 686.7831,332.7202 686.6331,349.6602 " fill="none" id="Scheduled Categorization Service-to-Complaint Assignment" style="stroke:#454645;stroke-width:1.0;"/><polygon fill="#454645" points="686.58,355.66,690.6595,346.6958,686.6243,350.6602,682.6598,346.6249,686.58,355.66" style="stroke:#454645;stroke-width:1.0;"/></g><!--link Status Update Service to Complaint Database--><g id="link_Status Update Service_Complaint Database"><path d="M440.61,614.57 C460.76,632.33 485.3979,654.0437 506.2379,672.4037 " fill="none" id="Status Update Service-to-Complaint Database" style="stroke:#454645;stroke-width:1.0;"/><polygon fill="#454645" points="510.74,676.37,506.6311,667.4192,506.9883,673.0648,501.3427,673.4219,510.74,676.37" style="stroke:#454645;stroke-width:1.0;"/></g><!--link Complaint Assignment to Complaint Categorization--><g id="link_Complaint Assignment_Complaint Categorization"><path d="M683.59,400.21 C678.31,440.42 667.6622,521.5012 662.1922,563.1012 " fill="none" id="Complaint Assignment-to-Complaint Categorization" style="stroke:#454645;stroke-width:1.0;"/><polygon fill="#454645" points="661.41,569.05,666.5492,560.6483,662.0618,564.0927,658.6175,559.6053,661.41,569.05" style="stroke:#454645;stroke-width:1.0;"/></g><!--link Complaint Categorization to Complaint Database--><g id="link_Complaint Categorization_Complaint Database"><path d="M632.51,616.35 C611.94,634.02 587.8499,654.7287 567.1899,672.4887 " fill="none" id="Complaint Categorization-to-Complaint Database" style="stroke:#454645;stroke-width:1.0;"/><polygon fill="#454645" points="562.64,676.4,572.0724,673.5664,566.4316,673.1406,566.8574,667.4998,562.64,676.4" style="stroke:#454645;stroke-width:1.0;"/></g><!--SRC=[XP7DReCm48Jl-nHRJiqXhr09qKjFhKYZdXTOY2MmaRr4QgA-Uqs2H30_kLcxdczMCozoueRnh39BMW0e5sCn-aYJxmI_o3dM5TjeEazCqzQajE1dMQgytyDCWllz6xx-S8PnszOg9r56xs0LiV8VPgFxnwDZYt7dpzSoRF30zknPkpNDQ9fofPpOG0QRr0VVb5lZb4_artizeSwjHotCSBVVqMtwJa8PEVRXQbDmECKh_04iWqFF8MFqRxObRKHqo4zST3KNc91mPQowX2719dZ024ddyDWMdlBGorDyU7didAfqu-leqrh6tZCRDMDmow3GOthAfD5WjUuqLBImwdlw1m00]--></g></svg>