<svg xmlns="http://www.w3.org/2000/svg" xmlns:xlink="http://www.w3.org/1999/xlink" contentStyleType="text/css" height="494px" preserveAspectRatio="none" style="width:696px;height:494px;background:#FFFFFF;" version="1.1" viewBox="0 0 696 494" width="696px" zoomAndPan="magnify"><defs/><g><!--entity Customer Portal--><g id="elem_Customer Portal"><rect fill="#F1F1F1" height="62.5938" rx="3.5" ry="3.5" style="stroke:#181818;stroke-width:0.5;" width="153.1758" x="79.38" y="7"/><rect fill="#F1F1F1" height="10" style="stroke:#181818;stroke-width:0.5;" width="15" x="212.5558" y="12"/><rect fill="#F1F1F1" height="2" style="stroke:#181818;stroke-width:0.5;" width="4" x="210.5558" y="14"/><rect fill="#F1F1F1" height="2" style="stroke:#181818;stroke-width:0.5;" width="4" x="210.5558" y="18"/><text fill="#000000" font-family="sans-serif" font-size="14" font-style="italic" lengthAdjust="spacing" textLength="98.4102" x="101.7628" y="39.9951">&#171;Component&#187;</text><text fill="#000000" font-family="sans-serif" font-size="14" lengthAdjust="spacing" textLength="113.1758" x="94.38" y="56.292">Customer Portal</text></g><!--entity Complaint Service--><g id="elem_Complaint Service"><rect fill="#F1F1F1" height="62.5938" rx="3.5" ry="3.5" style="stroke:#181818;stroke-width:0.5;" width="167.7773" x="117.08" y="146.6"/><rect fill="#F1F1F1" height="10" style="stroke:#181818;stroke-width:0.5;" width="15" x="264.8573" y="151.6"/><rect fill="#F1F1F1" height="2" style="stroke:#181818;stroke-width:0.5;" width="4" x="262.8573" y="153.6"/><rect fill="#F1F1F1" height="2" style="stroke:#181818;stroke-width:0.5;" width="4" x="262.8573" y="157.6"/><text fill="#000000" font-family="sans-serif" font-size="14" font-style="italic" lengthAdjust="spacing" textLength="98.4102" x="146.7636" y="179.5951">&#171;Component&#187;</text><text fill="#000000" font-family="sans-serif" font-size="14" lengthAdjust="spacing" textLength="127.7773" x="132.08" y="195.892">Complaint Service</text></g><!--entity Media Service--><g id="elem_Media Service"><rect fill="#F1F1F1" height="62.5938" rx="3.5" ry="3.5" style="stroke:#181818;stroke-width:0.5;" width="138.4102" x="68.76" y="286.19"/><rect fill="#F1F1F1" height="10" style="stroke:#181818;stroke-width:0.5;" width="15" x="187.1702" y="291.19"/><rect fill="#F1F1F1" height="2" style="stroke:#181818;stroke-width:0.5;" width="4" x="185.1702" y="293.19"/><rect fill="#F1F1F1" height="2" style="stroke:#181818;stroke-width:0.5;" width="4" x="185.1702" y="297.19"/><text fill="#000000" font-family="sans-serif" font-size="14" font-style="italic" lengthAdjust="spacing" textLength="98.4102" x="83.76" y="319.1851">&#171;Component&#187;</text><text fill="#000000" font-family="sans-serif" font-size="14" lengthAdjust="spacing" textLength="98.2393" x="83.8454" y="335.482">Media Service</text></g><!--entity Schedule Categorization Service--><g id="elem_Schedule Categorization Service"><rect fill="#F1F1F1" height="62.5938" rx="3.5" ry="3.5" style="stroke:#181818;stroke-width:0.5;" width="267.2744" x="242.33" y="286.19"/><rect fill="#F1F1F1" height="10" style="stroke:#181818;stroke-width:0.5;" width="15" x="489.6044" y="291.19"/><rect fill="#F1F1F1" height="2" style="stroke:#181818;stroke-width:0.5;" width="4" x="487.6044" y="293.19"/><rect fill="#F1F1F1" height="2" style="stroke:#181818;stroke-width:0.5;" width="4" x="487.6044" y="297.19"/><text fill="#000000" font-family="sans-serif" font-size="14" font-style="italic" lengthAdjust="spacing" textLength="98.4102" x="321.7621" y="319.1851">&#171;Component&#187;</text><text fill="#000000" font-family="sans-serif" font-size="14" lengthAdjust="spacing" textLength="227.2744" x="257.33" y="335.482">Schedule Categorization Service</text></g><!--entity Department Service--><g id="elem_Department Service"><rect fill="#F1F1F1" height="62.5938" rx="3.5" ry="3.5" style="stroke:#181818;stroke-width:0.5;" width="180.9092" x="285.51" y="425.79"/><rect fill="#F1F1F1" height="10" style="stroke:#181818;stroke-width:0.5;" width="15" x="446.4192" y="430.79"/><rect fill="#F1F1F1" height="2" style="stroke:#181818;stroke-width:0.5;" width="4" x="444.4192" y="432.79"/><rect fill="#F1F1F1" height="2" style="stroke:#181818;stroke-width:0.5;" width="4" x="444.4192" y="436.79"/><text fill="#000000" font-family="sans-serif" font-size="14" font-style="italic" lengthAdjust="spacing" textLength="98.4102" x="321.7595" y="458.7851">&#171;Component&#187;</text><text fill="#000000" font-family="sans-serif" font-size="14" lengthAdjust="spacing" textLength="140.9092" x="300.51" y="475.082">Department Service</text></g><!--entity Officer Portal--><g id="elem_Officer Portal"><rect fill="#F1F1F1" height="62.5938" rx="3.5" ry="3.5" style="stroke:#181818;stroke-width:0.5;" width="138.4102" x="348.76" y="7"/><rect fill="#F1F1F1" height="10" style="stroke:#181818;stroke-width:0.5;" width="15" x="467.1702" y="12"/><rect fill="#F1F1F1" height="2" style="stroke:#181818;stroke-width:0.5;" width="4" x="465.1702" y="14"/><rect fill="#F1F1F1" height="2" style="stroke:#181818;stroke-width:0.5;" width="4" x="465.1702" y="18"/><text fill="#000000" font-family="sans-serif" font-size="14" font-style="italic" lengthAdjust="spacing" textLength="98.4102" x="363.76" y="39.9951">&#171;Component&#187;</text><text fill="#000000" font-family="sans-serif" font-size="14" lengthAdjust="spacing" textLength="92.0049" x="366.9626" y="56.292">Officer Portal</text></g><!--entity Authentication Service--><g id="elem_Authentication Service"><rect fill="#F1F1F1" height="62.5938" rx="3.5" ry="3.5" style="stroke:#181818;stroke-width:0.5;" width="198.9629" x="406.49" y="146.6"/><rect fill="#F1F1F1" height="10" style="stroke:#181818;stroke-width:0.5;" width="15" x="585.4529" y="151.6"/><rect fill="#F1F1F1" height="2" style="stroke:#181818;stroke-width:0.5;" width="4" x="583.4529" y="153.6"/><rect fill="#F1F1F1" height="2" style="stroke:#181818;stroke-width:0.5;" width="4" x="583.4529" y="157.6"/><text fill="#000000" font-family="sans-serif" font-size="14" font-style="italic" lengthAdjust="spacing" textLength="98.4102" x="451.7664" y="179.5951">&#171;Component&#187;</text><text fill="#000000" font-family="sans-serif" font-size="14" lengthAdjust="spacing" textLength="158.9629" x="421.49" y="195.892">Authentication Service</text></g><!--link Customer Portal to Complaint Service--><g id="link_Customer Portal_Complaint Service"><path d="M78.97,56.56 C40.5,69.01 6,88.59 25.97,116.6 C46.86,145.9 77.123,159.7639 111.133,167.5939 " fill="none" id="Customer Portal-to-Complaint Service" style="stroke:#454645;stroke-width:1.0;"/><polygon fill="#454645" points="116.98,168.94,109.1069,163.0228,112.1075,167.8182,107.312,170.8188,116.98,168.94" style="stroke:#454645;stroke-width:1.0;"/><text fill="#000000" font-family="sans-serif" font-size="13" lengthAdjust="spacing" textLength="131.4854" x="26.97" y="112.6669">Registers Complaint</text></g><!--link Customer Portal to Authentication Service--><g id="link_Customer Portal_Authentication Service"><path d="M164.24,70.02 C170.18,86.27 179.86,105.17 194.97,116.6 C211.91,129.41 315.7532,147.7858 400.1332,161.0858 " fill="none" id="Customer Portal-to-Authentication Service" style="stroke:#454645;stroke-width:1.0;"/><polygon fill="#454645" points="406.06,162.02,397.7925,156.6675,401.121,161.2415,396.547,164.5699,406.06,162.02" style="stroke:#454645;stroke-width:1.0;"/><text fill="#000000" font-family="sans-serif" font-size="13" lengthAdjust="spacing" textLength="129.8286" x="195.97" y="112.6669">Authenticates Login</text></g><!--link Complaint Service to Media Service--><g id="link_Complaint Service_Media Service"><path d="M186.99,209.43 C176.55,232.23 164.8378,257.8046 154.4078,280.5846 " fill="none" id="Complaint Service-to-Media Service" style="stroke:#454645;stroke-width:1.0;"/><polygon fill="#454645" points="151.91,286.04,159.2936,279.5221,153.9915,281.4939,152.0198,276.1918,151.91,286.04" style="stroke:#454645;stroke-width:1.0;"/><text fill="#000000" font-family="sans-serif" font-size="13" lengthAdjust="spacing" textLength="84.5952" x="174.97" y="252.2569">Stores Media</text></g><!--link Complaint Service to Schedule Categorization Service--><g id="link_Complaint Service_Schedule Categorization Service"><path d="M239.81,209.43 C268.71,232.15 303.2732,259.3317 332.2232,282.0917 " fill="none" id="Complaint Service-to-Schedule Categorization Service" style="stroke:#454645;stroke-width:1.0;"/><polygon fill="#454645" points="336.94,285.8,332.3369,277.093,333.0093,282.7098,327.3925,283.3821,336.94,285.8" style="stroke:#454645;stroke-width:1.0;"/><text fill="#000000" font-family="sans-serif" font-size="13" lengthAdjust="spacing" textLength="238.0244" x="298.97" y="252.2569">Sends Complaints for Categorization</text></g><!--link Schedule Categorization Service to Department Service--><g id="link_Schedule Categorization Service_Department Service"><path d="M375.97,349.03 C375.97,371.83 375.97,396.85 375.97,419.63 " fill="none" id="Schedule Categorization Service-to-Department Service" style="stroke:#454645;stroke-width:1.0;"/><polygon fill="#454645" points="375.97,425.63,379.97,416.63,375.97,420.63,371.97,416.63,375.97,425.63" style="stroke:#454645;stroke-width:1.0;"/><text fill="#000000" font-family="sans-serif" font-size="13" lengthAdjust="spacing" textLength="149.2969" x="376.97" y="391.8569">Assigns to Department</text></g><!--link Officer Portal to Complaint Service--><g id="link_Officer Portal_Complaint Service"><path d="M389.21,70.07 C373.82,85.37 353.96,103.36 333.97,116.6 C317.27,127.65 303.6542,135.1079 285.2842,143.6179 " fill="none" id="Officer Portal-to-Complaint Service" style="stroke:#454645;stroke-width:1.0;"/><polygon fill="#454645" points="279.84,146.14,289.6877,145.9864,284.3768,144.0383,286.3249,138.7275,279.84,146.14" style="stroke:#454645;stroke-width:1.0;"/><text fill="#000000" font-family="sans-serif" font-size="13" lengthAdjust="spacing" textLength="178.2104" x="356.97" y="112.6669">Views Assigned Complaints</text></g><!--link Officer Portal to Authentication Service--><g id="link_Officer Portal_Authentication Service"><path d="M487.59,53.38 C512.91,62.23 538.97,76.54 553.97,99.6 C563.87,114.83 559.1542,127.4661 546.5942,141.7361 " fill="none" id="Officer Portal-to-Authentication Service" style="stroke:#454645;stroke-width:1.0;"/><polygon fill="#454645" points="542.63,146.24,551.5789,142.1269,545.9335,142.4867,545.5737,136.8413,542.63,146.24" style="stroke:#454645;stroke-width:1.0;"/><text fill="#000000" font-family="sans-serif" font-size="13" lengthAdjust="spacing" textLength="129.8286" x="558.97" y="112.6669">Authenticates Login</text></g><!--SRC=[bL51QiD03BplAzG7v0Cc68fpR6cf8HUJmzQM7O6z2fASGbxVnOJ4kDwqFKeQpMX6JtR40U5Cd-A3ELSLeneFAF3EOhu_m7PRy73YWC7o728WLhsdO52YdAd61SHLhzYGJqxB-eZDs2CKth1ZeOituf34x_3anGPy8FZMjh6TEDbLpsCq6OpgXq8hrZUR7DRyPl217QcXADp6gVsKUWQp2IgyS4V1hUOxyInIpQ0qbhWtzTDhlyOTYJ0qCoCABSi2xlxmjqbkxLlHgIfrGS4OxW3tyt7fmFU4NthbmMPsR8BaNwb_0m00]--></g></svg>