<svg xmlns="http://www.w3.org/2000/svg" xmlns:xlink="http://www.w3.org/1999/xlink" contentStyleType="text/css" height="544px" preserveAspectRatio="none" style="width:2020px;height:544px;background:#FFFFFF;" version="1.1" viewBox="0 0 2020 544" width="2020px" zoomAndPan="magnify"><defs/><g><g id="elem_IRCTC_Customer"><rect fill="#F1F1F1" height="44.5938" rx="3.5" ry="3.5" style="stroke:#181818;stroke-width:0.5;" width="130.9629" x="663.42" y="7"/><text fill="#000000" font-family="sans-serif" font-size="14" lengthAdjust="spacing" textLength="116.9629" x="670.42" y="21.9951">IRCTC_Customer</text><line style="stroke:#181818;stroke-width:0.5;" x1="664.42" x2="793.3829" y1="27.2969" y2="27.2969"/><text fill="#000000" font-family="sans-serif" font-size="14" lengthAdjust="spacing" textLength="114.4131" x="669.42" y="44.292">IRCTC Customer</text></g><g id="elem_Complaint_Portal"><rect fill="#F1F1F1" height="44.5938" rx="3.5" ry="3.5" style="stroke:#181818;stroke-width:0.5;" width="133.3076" x="662.25" y="128.59"/><text fill="#000000" font-family="sans-serif" font-size="14" lengthAdjust="spacing" textLength="119.3076" x="669.25" y="143.5851">Complaint_Portal</text><line style="stroke:#181818;stroke-width:0.5;" x1="663.25" x2="794.5576" y1="148.8869" y2="148.8869"/><text fill="#000000" font-family="sans-serif" font-size="14" lengthAdjust="spacing" textLength="116.7578" x="668.25" y="165.882">Complaint Portal</text></g><g id="elem_Authentication_Gateway"><rect fill="#F1F1F1" height="44.5938" rx="3.5" ry="3.5" style="stroke:#181818;stroke-width:0.5;" width="185.6162" x="165.1" y="250.19"/><text fill="#000000" font-family="sans-serif" font-size="14" lengthAdjust="spacing" textLength="171.6162" x="172.1" y="265.1851">Authentication_Gateway</text><line style="stroke:#181818;stroke-width:0.5;" x1="166.1" x2="349.7162" y1="270.4869" y2="270.4869"/><text fill="#000000" font-family="sans-serif" font-size="14" lengthAdjust="spacing" textLength="169.0664" x="171.1" y="287.482">Authentication Gateway</text></g><g id="elem_Complaint_Gateway"><rect fill="#F1F1F1" height="44.5938" rx="3.5" ry="3.5" style="stroke:#181818;stroke-width:0.5;" width="154.4307" x="914.69" y="250.19"/><text fill="#000000" font-family="sans-serif" font-size="14" lengthAdjust="spacing" textLength="140.4307" x="921.69" y="265.1851">Complaint_Gateway</text><line style="stroke:#181818;stroke-width:0.5;" x1="915.69" x2="1068.1207" y1="270.4869" y2="270.4869"/><text fill="#000000" font-family="sans-serif" font-size="14" lengthAdjust="spacing" textLength="137.8809" x="920.69" y="287.482">Complaint Gateway</text></g><g id="elem_Authentication_Database"><rect fill="#F1F1F1" height="44.5938" rx="3.5" ry="3.5" style="stroke:#181818;stroke-width:0.5;" width="190.5723" x="91.62" y="371.78"/><text fill="#000000" font-family="sans-serif" font-size="14" lengthAdjust="spacing" textLength="176.5723" x="98.62" y="386.7751">Authentication_Database</text><line style="stroke:#181818;stroke-width:0.5;" x1="92.62" x2="281.1923" y1="392.0769" y2="392.0769"/><text fill="#000000" font-family="sans-serif" font-size="14" lengthAdjust="spacing" textLength="174.0225" x="97.62" y="409.072">Authentication Database</text></g><g id="elem_Complaint_Database"><rect fill="#F1F1F1" height="44.5938" rx="3.5" ry="3.5" style="stroke:#181818;stroke-width:0.5;" width="159.3867" x="944.21" y="371.78"/><text fill="#000000" font-family="sans-serif" font-size="14" lengthAdjust="spacing" textLength="145.3867" x="951.21" y="386.7751">Complaint_Database</text><line style="stroke:#181818;stroke-width:0.5;" x1="945.21" x2="1102.5967" y1="392.0769" y2="392.0769"/><text fill="#000000" font-family="sans-serif" font-size="14" lengthAdjust="spacing" textLength="142.8369" x="950.21" y="409.072">Complaint Database</text></g><g id="elem_Schedule_Categorization_Service"><rect fill="#F1F1F1" height="44.5938" rx="3.5" ry="3.5" style="stroke:#181818;stroke-width:0.5;" width="246.374" x="900.72" y="493.38"/><text fill="#000000" font-family="sans-serif" font-size="14" lengthAdjust="spacing" textLength="232.374" x="907.72" y="508.3751">Schedule_Categorization_Service</text><line style="stroke:#181818;stroke-width:0.5;" x1="901.72" x2="1146.094" y1="513.6769" y2="513.6769"/><text fill="#000000" font-family="sans-serif" font-size="14" lengthAdjust="spacing" textLength="227.2744" x="906.72" y="530.672">Schedule Categorization Service</text></g><!--link IRCTC_Customer to Complaint_Portal--><g id="link_IRCTC_Customer_Complaint_Portal"><path codeLine="30" d="M663,31.71 C526.14,35.33 221.19,47.19 189.91,81.59 C184.82,87.18 184.82,93 189.91,98.59 C221.11,132.91 518.6021,144.6406 655.9621,148.2906 " fill="none" id="IRCTC_Customer-to-Complaint_Portal" style="stroke:#454645;stroke-width:1.0;"/><polygon fill="#454645" points="661.96,148.45,653.0694,144.2123,656.9618,148.3172,652.8569,152.2095,661.96,148.45" style="stroke:#454645;stroke-width:1.0;"/><text fill="#000000" font-family="sans-serif" font-size="13" lengthAdjust="spacing" textLength="210.7104" x="190.91" y="94.6569">Create a new Customer Account</text></g><!--link Complaint_Portal to IRCTC_Customer--><g id="link_Complaint_Portal_IRCTC_Customer"><path codeLine="35" d="M676.81,128.2 C656.74,116.4 640.78,100.37 650.91,81.59 C657.52,69.33 663.4674,62.7923 675.1274,55.1723 " fill="none" id="Complaint_Portal-to-IRCTC_Customer" style="stroke:#454645;stroke-width:1.0;"/><polygon fill="#454645" points="680.15,51.89,670.4279,53.4651,675.9645,54.6253,674.8044,60.1619,680.15,51.89" style="stroke:#454645;stroke-width:1.0;"/><text fill="#000000" font-family="sans-serif" font-size="13" lengthAdjust="spacing" textLength="108.583" x="651.91" y="94.6569">Account Created</text></g><!--link IRCTC_Customer to Complaint_Portal--><g id="link_IRCTC_Customer_Complaint_Portal"><path codeLine="37" d="M663.03,34.12 C594.77,39.62 494.77,52.52 470.91,81.59 C466.11,87.44 466.11,92.75 470.91,98.59 C494.63,127.5 587.5798,139.9227 655.8098,145.4827 " fill="none" id="IRCTC_Customer-to-Complaint_Portal-1" style="stroke:#454645;stroke-width:1.0;"/><polygon fill="#454645" points="661.79,145.97,653.1446,141.2522,656.8065,145.5639,652.4949,149.2258,661.79,145.97" style="stroke:#454645;stroke-width:1.0;"/><text fill="#000000" font-family="sans-serif" font-size="13" lengthAdjust="spacing" textLength="167.813" x="471.91" y="94.6569">Register a new Complaint</text></g><!--link Complaint_Portal to IRCTC_Customer--><g id="link_Complaint_Portal_IRCTC_Customer"><path codeLine="42" d="M748.5,128.28 C755.04,119.67 761.53,109.28 764.91,98.59 C770.11,82.11 764.6725,69.5798 754.2825,56.5598 " fill="none" id="Complaint_Portal-to-IRCTC_Customer-1" style="stroke:#454645;stroke-width:1.0;"/><polygon fill="#454645" points="750.54,51.87,753.0272,61.3996,753.6587,55.7781,759.2802,56.4097,750.54,51.87" style="stroke:#454645;stroke-width:1.0;"/><text fill="#000000" font-family="sans-serif" font-size="13" lengthAdjust="spacing" textLength="140.9624" x="767.91" y="94.6569">Complaint Registered</text></g><!--link Complaint_Portal to IRCTC_Customer--><g id="link_Complaint_Portal_IRCTC_Customer"><path codeLine="49" d="M795.86,147.45 C863,142.43 951.79,127.27 916.91,81.59 C901.86,61.9 848.3816,48.9759 800.3216,40.6359 " fill="none" id="Complaint_Portal-to-IRCTC_Customer-2" style="stroke:#454645;stroke-width:1.0;"/><polygon fill="#454645" points="794.41,39.61,802.5936,45.0899,799.3364,40.4649,803.9614,37.2077,794.41,39.61" style="stroke:#454645;stroke-width:1.0;"/><text fill="#000000" font-family="sans-serif" font-size="13" lengthAdjust="spacing" textLength="223.7485" x="925.91" y="94.6569">Check the Status of the Complaint</text></g><!--link Complaint_Portal to IRCTC_Customer--><g id="link_Complaint_Portal_IRCTC_Customer"><path codeLine="52" d="M795.88,149.52 C928.37,147.58 1207.06,136.98 1157.91,81.59 C1134.22,54.91 914.8014,39.8815 800.5714,33.7515 " fill="none" id="Complaint_Portal-to-IRCTC_Customer-3" style="stroke:#454645;stroke-width:1.0;"/><polygon fill="#454645" points="794.58,33.43,803.3527,37.9065,799.5728,33.6979,803.7814,29.918,794.58,33.43" style="stroke:#454645;stroke-width:1.0;"/><text fill="#000000" font-family="sans-serif" font-size="13" lengthAdjust="spacing" textLength="403.3237" x="1163.91" y="94.6569">Latest Complaint with updated status and messages returned</text></g><!--link Complaint_Portal to Authentication_Gateway--><g id="link_Complaint_Portal_Authentication_Gateway"><path codeLine="31" d="M661.91,153.65 C529.28,157.84 243.44,170.57 213.91,203.19 C201.03,217.41 209.8486,231.7223 225.0786,245.8323 " fill="none" id="Complaint_Portal-to-Authentication_Gateway" style="stroke:#454645;stroke-width:1.0;"/><polygon fill="#454645" points="229.48,249.91,225.5964,240.8592,225.8122,246.5119,220.1594,246.7277,229.48,249.91" style="stroke:#454645;stroke-width:1.0;"/><text fill="#000000" font-family="sans-serif" font-size="13" lengthAdjust="spacing" textLength="351.2412" x="214.91" y="216.2569">Add a new Customer Entity to Authentication Records</text></g><!--link Authentication_Gateway to Complaint_Portal--><g id="link_Authentication_Gateway_Complaint_Portal"><path codeLine="34" d="M350.97,263.37 C414.11,256.14 498.87,243.05 570.91,220.19 C587.39,214.96 590.14,210.3 605.91,203.19 C628.37,193.06 647.8821,184.7649 669.4921,175.8649 " fill="none" id="Authentication_Gateway-to-Complaint_Portal" style="stroke:#454645;stroke-width:1.0;"/><polygon fill="#454645" points="675.04,173.58,665.1949,173.3087,670.4167,175.4841,668.2414,180.7059,675.04,173.58" style="stroke:#454645;stroke-width:1.0;"/><text fill="#000000" font-family="sans-serif" font-size="13" lengthAdjust="spacing" textLength="197.2598" x="606.91" y="216.2569">Customer Insertion Successful</text></g><!--link Authentication_Gateway to Authentication_Database--><g id="link_Authentication_Gateway_Authentication_Database"><path codeLine="32" d="M164.71,282.7 C109.48,290.3 47.01,303.4 29.91,324.78 C6,354.67 39.9794,370.5306 85.4994,380.1406 " fill="none" id="Authentication_Gateway-to-Authentication_Database" style="stroke:#454645;stroke-width:1.0;"/><polygon fill="#454645" points="91.37,381.38,83.3904,375.6072,86.4778,380.3472,81.7378,383.4347,91.37,381.38" style="stroke:#454645;stroke-width:1.0;"/><text fill="#000000" font-family="sans-serif" font-size="13" lengthAdjust="spacing" textLength="265.5034" x="30.91" y="337.8469">INSERT Customer Details INTO Database</text></g><!--link Authentication_Database to Authentication_Gateway--><g id="link_Authentication_Database_Authentication_Gateway"><path codeLine="33" d="M266.93,371.39 C280.4,364.16 292.66,354.54 300.91,341.78 C310.95,326.25 303.4814,312.7835 289.7514,299.3035 " fill="none" id="Authentication_Database-to-Authentication_Gateway" style="stroke:#454645;stroke-width:1.0;"/><polygon fill="#454645" points="285.47,295.1,289.0898,304.2595,289.0379,298.6029,294.6945,298.5509,285.47,295.1" style="stroke:#454645;stroke-width:1.0;"/><text fill="#000000" font-family="sans-serif" font-size="13" lengthAdjust="spacing" textLength="197.2598" x="305.91" y="337.8469">Customer Insertion Successful</text></g><!--link Complaint_Portal to Complaint_Gateway--><g id="link_Complaint_Portal_Complaint_Gateway"><path codeLine="38" d="M762.29,173.68 C785.21,188.06 816.66,206.66 845.91,220.19 C869.93,231.3 891.4011,239.5134 915.7111,247.8034 " fill="none" id="Complaint_Portal-to-Complaint_Gateway" style="stroke:#454645;stroke-width:1.0;"/><polygon fill="#454645" points="921.39,249.74,914.1627,243.0492,916.6576,248.1262,911.5806,250.6211,921.39,249.74" style="stroke:#454645;stroke-width:1.0;"/><text fill="#000000" font-family="sans-serif" font-size="13" lengthAdjust="spacing" textLength="280.4712" x="846.91" y="216.2569">Add a new Complaint Entity to the Records</text></g><!--link Complaint_Gateway to Complaint_Portal--><g id="link_Complaint_Gateway_Complaint_Portal"><path codeLine="41" d="M1069.44,259.18 C1113.96,248.85 1156.57,231.19 1131.91,203.19 C1110.08,178.41 910.5583,162.8143 801.7583,156.0143 " fill="none" id="Complaint_Gateway-to-Complaint_Portal" style="stroke:#454645;stroke-width:1.0;"/><polygon fill="#454645" points="795.77,155.64,804.503,160.1936,800.7603,155.9519,805.002,152.2092,795.77,155.64" style="stroke:#454645;stroke-width:1.0;"/><text fill="#000000" font-family="sans-serif" font-size="13" lengthAdjust="spacing" textLength="298.0605" x="1139.91" y="216.2569">Complaint Entity with updated fields returned</text></g><!--link Complaint_Gateway to Complaint_Database--><g id="link_Complaint_Gateway_Complaint_Database"><path codeLine="39" d="M914.42,275.01 C787.49,278.91 553.44,292.78 596.91,341.78 C619.51,367.27 820.8996,382.1512 938.1196,388.7812 " fill="none" id="Complaint_Gateway-to-Complaint_Database" style="stroke:#454645;stroke-width:1.0;"/><polygon fill="#454645" points="944.11,389.12,935.3502,384.6182,939.118,388.8376,934.8985,392.6054,944.11,389.12" style="stroke:#454645;stroke-width:1.0;"/><text fill="#000000" font-family="sans-serif" font-size="13" lengthAdjust="spacing" textLength="268.8296" x="597.91" y="337.8469">INSERT Complaint Details INTO Database</text></g><!--link Complaint_Database to Complaint_Gateway--><g id="link_Complaint_Database_Complaint_Gateway"><path codeLine="40" d="M1074.33,371.42 C1094.89,359.31 1111.42,343 1099.91,324.78 C1091.87,312.06 1084.9839,305.3095 1071.6939,298.0395 " fill="none" id="Complaint_Database-to-Complaint_Gateway" style="stroke:#454645;stroke-width:1.0;"/><polygon fill="#454645" points="1066.43,295.16,1072.4062,302.9885,1070.8166,297.5596,1076.2455,295.97,1066.43,295.16" style="stroke:#454645;stroke-width:1.0;"/><text fill="#000000" font-family="sans-serif" font-size="13" lengthAdjust="spacing" textLength="200.5859" x="1103.91" y="337.8469">Complaint Insertion Successful</text></g><!--link Complaint_Gateway to Complaint_Database--><g id="link_Complaint_Gateway_Complaint_Database"><path codeLine="50" d="M930.56,295.22 C907.83,306.88 890.32,322.78 902.91,341.78 C912.73,356.62 922.3559,364.6578 938.5659,372.1678 " fill="none" id="Complaint_Gateway-to-Complaint_Database-1" style="stroke:#454645;stroke-width:1.0;"/><polygon fill="#454645" points="944.01,374.69,937.5253,367.2773,939.4732,372.5881,934.1623,374.5361,944.01,374.69" style="stroke:#454645;stroke-width:1.0;"/><text fill="#000000" font-family="sans-serif" font-size="13" lengthAdjust="spacing" textLength="187.0972" x="903.91" y="337.8469">SELECT the Complaint Entity</text></g><!--link Complaint_Database to Complaint_Gateway--><g id="link_Complaint_Database_Complaint_Gateway"><path codeLine="51" d="M1104.06,386.94 C1199.28,378.03 1341.89,358.76 1312.91,324.78 C1282.23,288.82 1160.2757,278.1876 1075.4657,274.9676 " fill="none" id="Complaint_Database-to-Complaint_Gateway-1" style="stroke:#454645;stroke-width:1.0;"/><polygon fill="#454645" points="1069.47,274.74,1078.3118,279.0786,1074.4664,274.9297,1078.6153,271.0843,1069.47,274.74" style="stroke:#454645;stroke-width:1.0;"/><text fill="#000000" font-family="sans-serif" font-size="13" lengthAdjust="spacing" textLength="169.2031" x="1316.91" y="337.8469">Complaint Entity returned</text></g><!--link Complaint_Database to Schedule_Categorization_Service--><g id="link_Complaint_Database_Schedule_Categorization_Service"><path codeLine="44" d="M943.85,398.95 C825.63,405.5 615.77,420.63 592.91,446.38 C549.74,494.99 752.1624,508.9499 894.2424,512.9799 " fill="none" id="Complaint_Database-to-Schedule_Categorization_Service" style="stroke:#454645;stroke-width:1.0;"/><polygon fill="#454645" points="900.24,513.15,891.357,508.8964,895.242,513.0082,891.1302,516.8932,900.24,513.15" style="stroke:#454645;stroke-width:1.0;"/><text fill="#000000" font-family="sans-serif" font-size="13" lengthAdjust="spacing" textLength="274.8091" x="593.91" y="459.4469">SELECT all un-assigned Complaint Entities</text></g><!--link Schedule_Categorization_Service to Complaint_Database--><g id="link_Schedule_Categorization_Service_Complaint_Database"><path codeLine="45" d="M1071.95,492.98 C1091.07,481.02 1106.51,464.86 1096.91,446.38 C1090.62,434.28 1084.9708,427.8442 1073.7808,420.1342 " fill="none" id="Schedule_Categorization_Service-to-Complaint_Database" style="stroke:#454645;stroke-width:1.0;"/><polygon fill="#454645" points="1068.84,416.73,1073.9817,425.1302,1072.9573,419.5669,1078.5206,418.5425,1068.84,416.73" style="stroke:#454645;stroke-width:1.0;"/><text fill="#000000" font-family="sans-serif" font-size="13" lengthAdjust="spacing" textLength="446.9639" x="1099.91" y="459.4469">Process content, categorize, assign department &amp; officer, modify list</text></g><!--link Schedule_Categorization_Service to Complaint_Database--><g id="link_Schedule_Categorization_Service_Complaint_Database"><path codeLine="46" d="M1147.32,511.32 C1295.62,505.99 1528.02,492.99 1554.91,463.38 C1559.99,457.78 1559.99,451.97 1554.91,446.38 C1525.21,413.68 1250.9573,401.4096 1110.0173,397.1896 " fill="none" id="Schedule_Categorization_Service-to-Complaint_Database-1" style="stroke:#454645;stroke-width:1.0;"/><polygon fill="#454645" points="1104.02,397.01,1112.8963,401.2776,1109.0178,397.1596,1113.1357,393.2811,1104.02,397.01" style="stroke:#454645;stroke-width:1.0;"/><text fill="#000000" font-family="sans-serif" font-size="13" lengthAdjust="spacing" textLength="453.2798" x="1558.91" y="459.4469">UPDATE un-assigned Complaint Entities SET Department and Officers</text></g><!--link Complaint_Database to Schedule_Categorization_Service--><g id="link_Complaint_Database_Schedule_Categorization_Service"><path codeLine="47" d="M943.98,412.75 C913.53,423.55 889.46,439.89 904.91,463.38 C913.31,476.16 920.3514,482.955 933.9414,490.175 " fill="none" id="Complaint_Database-to-Schedule_Categorization_Service-1" style="stroke:#454645;stroke-width:1.0;"/><polygon fill="#454645" points="939.24,492.99,933.1687,485.235,934.8245,490.6441,929.4153,492.2999,939.24,492.99" style="stroke:#454645;stroke-width:1.0;"/><text fill="#000000" font-family="sans-serif" font-size="13" lengthAdjust="spacing" textLength="182.5713" x="905.91" y="459.4469">Complaint Records Updated</text></g><!--SRC=[dLLDZzem4BtdLqmlUu8_aCDAA4GLqggBIFQCZ3q1jucD_B68LltlTSZN9d48XLiyC-_Dl3SZlfaJ5WYV_A28C84y_4HgOBEBqcWVMMraWGh-1E1-jqTe7eE_GPCToUAS4oxCVYkL8NcTtpv3zVobOcKThJ2S4iEbs7yd1Y_aMjVrWr07lNpzmevmN3DWN1D33aIZdxA9UZa7fHsffogX9sGsntta6ZfAnNzNz0cgJquRY2OB-bbGPvLu0qEMozUnwY542Xq2411uQOs25QNIEcz71INAX1CXh1WR0iKkprp1oA5UEwHICHrCW7buMX53sFn8ubtQiQpH49vhzvw-TvfErT-TeSNS28sgqjHIYbfdDh_NhK_RkrXURGUcXOqJjK_iKLjtUEJQk7ZjHvFXPnrVHy_CTbqxDvqChONZwZwcnxZk0BpEUMgdskoWPaIUyseuv8MR4zWpArM7Z6FED2WqLWddmcFUTPYD7QM14yFDtNq8IVmMHocGF0ShbaHhVdIz33ldg8Cvh4b_jagMoW6LmhWzNm1j07015ICmF1Db2XU65v1PvW3L0Wh9U7Q5t8tvFFt7ThrAuvdfd0wfsvks2I8Ol5Tjw2V5xLjrsshugAmF7lNwXFJNxImIGupLJfdRb-_oPi-aThfNN-_bSxTHx_H_xk-RGz9V_iVwDw6hEKlv2xSpv8ZTWVm3]--></g></svg>