<svg xmlns="http://www.w3.org/2000/svg" xmlns:xlink="http://www.w3.org/1999/xlink" contentStyleType="text/css" height="528px" preserveAspectRatio="none" style="width:1149px;height:528px;background:#FFFFFF;" version="1.1" viewBox="0 0 1149 528" width="1149px" zoomAndPan="magnify"><defs/><g><!--cluster User Device--><g id="cluster_User Device"><rect fill="#FFFFFF" height="87.3" rx="3.5" ry="3.5" style="stroke:#000000;stroke-width:1.0;" width="144" x="266" y="7"/><text fill="#000000" font-family="sans-serif" font-size="14" font-weight="bold" lengthAdjust="spacing" textLength="93.8096" x="291.0952" y="21.9951">User Device</text></g><!--cluster SCRLWY Officer Device--><g id="cluster_SCRLWY Officer Device"><rect fill="#FFFFFF" height="87.3" rx="3.5" ry="3.5" style="stroke:#000000;stroke-width:1.0;" width="197" x="434" y="7"/><text fill="#000000" font-family="sans-serif" font-size="14" font-weight="bold" lengthAdjust="spacing" textLength="181.8018" x="441.5991" y="21.9951">SCRLWY Officer Device</text></g><!--cluster Application Server--><g id="cluster_Application Server"><rect fill="#FFFFFF" height="379.59" rx="3.5" ry="3.5" style="stroke:#000000;stroke-width:1.0;" width="540" x="7" y="143.3"/><text fill="#000000" font-family="sans-serif" font-size="14" font-weight="bold" lengthAdjust="spacing" textLength="146.1797" x="203.9102" y="158.2951">Application Server</text></g><!--cluster springBoot--><g id="cluster_springBoot"><rect fill="#FFFFFF" height="296.59" rx="3.5" ry="3.5" style="stroke:#000000;stroke-width:1.0;" width="476" x="39" y="194.3"/><text fill="#000000" font-family="sans-serif" font-size="14" font-weight="bold" lengthAdjust="spacing" textLength="93.2695" x="230.3652" y="209.2951">Spring Boot</text></g><!--cluster dataBase--><g id="cluster_dataBase"><rect fill="#FFFFFF" height="170.3" rx="3.5" ry="3.5" style="stroke:#000000;stroke-width:1.0;" width="495" x="579" y="344.59"/><text fill="#000000" font-family="sans-serif" font-size="14" font-weight="bold" lengthAdjust="spacing" textLength="131.3867" x="760.8066" y="359.5851">Database Server</text></g><!--cluster Supabase--><g id="cluster_Supabase"><rect fill="#FFFFFF" height="87.3" rx="3.5" ry="3.5" style="stroke:#000000;stroke-width:1.0;" width="423" x="611" y="395.59"/><text fill="#000000" font-family="sans-serif" font-size="14" font-weight="bold" lengthAdjust="spacing" textLength="76.8154" x="784.0923" y="410.5851">Supabase</text></g><!--cluster Web Services--><g id="cluster_Web Services"><rect fill="#FFFFFF" height="87.3" rx="3.5" ry="3.5" style="stroke:#000000;stroke-width:1.0;" width="429" x="655" y="7"/><text fill="#000000" font-family="sans-serif" font-size="14" font-weight="bold" lengthAdjust="spacing" textLength="106.3672" x="816.3164" y="21.9951">Web Services</text></g><!--entity userBrowser--><g id="elem_userBrowser"><rect fill="#FFFFFF" height="36.2969" rx="3.5" ry="3.5" style="stroke:#000000;stroke-width:0.5;" width="112.832" x="281.58" y="42"/><text fill="#000000" font-family="sans-serif" font-size="14" lengthAdjust="spacing" textLength="92.832" x="291.58" y="64.9951">Web Browser</text></g><!--entity officerBrowser--><g id="elem_officerBrowser"><rect fill="#FFFFFF" height="36.2969" rx="3.5" ry="3.5" style="stroke:#000000;stroke-width:0.5;" width="112.832" x="450.58" y="42"/><text fill="#000000" font-family="sans-serif" font-size="14" lengthAdjust="spacing" textLength="92.832" x="460.58" y="64.9951">Web Browser</text></g><!--entity Spring Web_Controllers--><g id="elem_Spring Web_Controllers"><rect fill="#FFFFFF" height="36.2969" rx="3.5" ry="3.5" style="stroke:#000000;stroke-width:0.5;" width="184.4385" x="62.78" y="237.3"/><text fill="#000000" font-family="sans-serif" font-size="14" lengthAdjust="spacing" textLength="164.4385" x="72.78" y="260.2951">Spring Web_Controllers</text></g><!--entity Authentication Gateway--><g id="elem_Authentication Gateway"><rect fill="#FFFFFF" height="36.2969" rx="3.5" ry="3.5" style="stroke:#000000;stroke-width:0.5;" width="189.0664" x="282.47" y="237.3"/><text fill="#000000" font-family="sans-serif" font-size="14" lengthAdjust="spacing" textLength="169.0664" x="292.47" y="260.2951">Authentication Gateway</text></g><!--entity Data JPA--><g id="elem_Data JPA"><rect fill="#FFFFFF" height="36.2969" rx="3.5" ry="3.5" style="stroke:#000000;stroke-width:0.5;" width="80.0264" x="114.99" y="430.59"/><text fill="#000000" font-family="sans-serif" font-size="14" lengthAdjust="spacing" textLength="60.0264" x="124.99" y="453.5851">Data JPA</text></g><!--entity Authentication Database--><g id="elem_Authentication Database"><rect fill="#FFFFFF" height="36.2969" rx="3.5" ry="3.5" style="stroke:#000000;stroke-width:0.5;" width="194.0225" x="626.99" y="430.59"/><text fill="#000000" font-family="sans-serif" font-size="14" lengthAdjust="spacing" textLength="174.0225" x="636.99" y="453.5851">Authentication Database</text></g><!--entity Complaint Database--><g id="elem_Complaint Database"><rect fill="#FFFFFF" height="36.2969" rx="3.5" ry="3.5" style="stroke:#000000;stroke-width:0.5;" width="162.8369" x="855.58" y="430.59"/><text fill="#000000" font-family="sans-serif" font-size="14" lengthAdjust="spacing" textLength="142.8369" x="865.58" y="453.5851">Complaint Database</text></g><!--entity complaint_Registering--><g id="elem_complaint_Registering"><rect fill="#FFFFFF" height="36.2969" rx="3.5" ry="3.5" style="stroke:#000000;stroke-width:0.5;" width="176.4268" x="670.79" y="42"/><text fill="#000000" font-family="sans-serif" font-size="14" lengthAdjust="spacing" textLength="156.4268" x="680.79" y="64.9951">complaint_Registering</text></g><!--entity Batch Processing Script--><g id="elem_Batch Processing Script"><rect fill="#FFFFFF" height="36.2969" rx="3.5" ry="3.5" style="stroke:#000000;stroke-width:0.5;" width="185.0605" x="882.47" y="42"/><text fill="#000000" font-family="sans-serif" font-size="14" lengthAdjust="spacing" textLength="165.0605" x="892.47" y="64.9951">Batch Processing Script</text></g><!--link userBrowser to springBoot--><g id="link_userBrowser_springBoot"><path d="M363.91,78.58 C386.95,93.39 422.01,114.27 455,127.3 C469.04,132.84 477.76,124.21 488,135.3 C496.9525,144.995 502.6494,157.1338 506.1508,169.9264 C507.9015,176.3227 509.1033,182.8825 509.8888,189.3821 C510.0852,191.007 509.7135,186.6526 509.8599,188.2665 " fill="none" id="userBrowser-to-springBoot" style="stroke:#454645;stroke-width:1.0;stroke-dasharray:7.0,7.0;"/><polygon fill="#454645" points="510.4019,194.242,513.5725,184.9174,509.9502,189.2624,505.6052,185.6401,510.4019,194.242" style="stroke:#454645;stroke-width:1.0;"/><text fill="#000000" font-family="sans-serif" font-size="13" lengthAdjust="spacing" textLength="42.5928" x="456" y="123.3669">&#171;http&#187;</text></g><!--link officerBrowser to springBoot--><g id="link_officerBrowser_springBoot"><path d="M507,78.64 C507,102.06 507,145.015 507,182.6013 C507,184.9504 507,187.2786 507,189.5797 C507,190.7302 507,191.874 507,193.0103 C507,193.2944 507,187.578 507,187.8611 " fill="none" id="officerBrowser-to-springBoot" style="stroke:#454645;stroke-width:1.0;stroke-dasharray:7.0,7.0;"/><polygon fill="#454645" points="507,193.8611,511,184.8611,507,188.8611,503,184.8611,507,193.8611" style="stroke:#454645;stroke-width:1.0;"/><text fill="#000000" font-family="sans-serif" font-size="13" lengthAdjust="spacing" textLength="42.5928" x="508" y="123.3669">&#171;http&#187;</text></g><!--link springBoot to dataBase--><g id="link_springBoot_dataBase"><path d="M515.2847,257.0283 C515.8221,257.0668 516.3843,257.1072 516.9707,257.1494 C518.1436,257.2339 519.4136,257.3257 520.7773,257.4249 C523.5048,257.6231 526.6069,257.8506 530.0563,258.1064 C543.8541,259.1297 563.2084,260.607 586.3625,262.4864 C632.6706,266.2453 694.1775,271.6131 756.8275,278.1763 C882.1275,291.3025 1012,309.21 1034,328.59 C1039.0625,333.05 1043.3636,338.2164 1047.014,343.8479 C1047.1281,344.0238 1044.0153,339.1415 1044.1281,339.3184 " fill="none" id="springBoot-to-dataBase" style="stroke:#454645;stroke-width:1.0;stroke-dasharray:7.0,7.0;"/><polygon fill="#454645" points="1047.3543,344.3772,1045.8875,334.6381,1044.6658,340.1615,1039.1424,338.9398,1047.3543,344.3772" style="stroke:#454645;stroke-width:1.0;"/><text fill="#000000" font-family="sans-serif" font-size="13" lengthAdjust="spacing" textLength="125.436" x="1016" y="316.6569">&#171;JDBC Connection&#187;</text></g><!--link complaint_Registering to springBoot--><g id="link_complaint_Registering_springBoot"><path d="M736.19,78.64 C705.66,102.06 649.6625,145.015 600.6625,182.6013 C576.1625,201.3944 553.4119,218.8453 536.4688,231.8411 C527.9972,238.339 520.9775,243.7231 515.917,247.6043 C515.7588,247.7256 520.3636,244.194 520.2093,244.3123 " fill="none" id="complaint_Registering-to-springBoot" style="stroke:#454645;stroke-width:1.0;stroke-dasharray:7.0,7.0;"/><polygon fill="#454645" points="515.4483,247.9637,525.0241,245.6606,519.4158,244.9209,520.1555,239.3126,515.4483,247.9637" style="stroke:#454645;stroke-width:1.0;"/><text fill="#000000" font-family="sans-serif" font-size="13" lengthAdjust="spacing" textLength="107.2881" x="692" y="123.3669">&#171;REST API&#187; calls</text></g><!--SRC=[ZPBHQi8m58RlynHdVG0VO4YXhMDC1XEx8RkI68ys69EGd2fZ-EvBwdGrkh6xdfCl__dpdzvHWrk4dLmuheanlv7QSiUtu50Grsk5yCa0IYusQsTQlQoCCWvcZIICVUEMw8wzKWM87HZxkPgzUNGmmfqKc7L2lRCPBg1qPX-G3BY7DdnyrubANKsVP-_mibe5dN_hcID-MxAmLad1IHeDDRfTl9FerTP9lGvFDDJf-QwEPKVUOeE5UMKqEQCKEf-bMD66l3MT1ZzomZt_kC96d3YC9qKyE2J6uzc2Upox3iwMeLV6Nlg2rdRirTCI7oVDx9AgpDOgBZLT0AcX67lq4hBsLuF4IM8-nRNqX36cP4p9IJGmSIO8-9XYBPoqbCKvlNy21eEyluDx60uR8fldx7BJVu2iruxKERZ8Z4Tb1M5xEbWBgKJy5_-t9amVwbSe9azv3e8hvRy0]--></g></svg>