<svg xmlns="http://www.w3.org/2000/svg" xmlns:xlink="http://www.w3.org/1999/xlink" contentStyleType="text/css" height="530px" preserveAspectRatio="none" style="width:1532px;height:530px;background:#FFFFFF;" version="1.1" viewBox="0 0 1532 530" width="1532px" zoomAndPan="magnify"><defs/><g><!--entity IRCTC Passenger--><g id="elem_IRCTC Passenger"><ellipse cx="395.9104" cy="14" fill="#454645" rx="8" ry="8" style="stroke:#454645;stroke-width:0.5;"/><path d="M395.9104,22 L395.9104,49 M382.9104,30 L408.9104,30 M395.9104,49 L382.9104,64 M395.9104,49 L408.9104,64 " fill="none" style="stroke:#454645;stroke-width:0.5;"/><text fill="#454645" font-family="sans-serif" font-size="14" lengthAdjust="spacing" textLength="118.7607" x="336.53" y="78.4951">IRCTC Passenger</text></g><!--entity IRCTC ComplaintOfficer--><g id="elem_IRCTC ComplaintOfficer"><ellipse cx="836.9041" cy="14" fill="#454645" rx="8" ry="8" style="stroke:#454645;stroke-width:0.5;"/><path d="M836.9041,22 L836.9041,49 M823.9041,30 L849.9041,30 M836.9041,49 L823.9041,64 M836.9041,49 L849.9041,64 " fill="none" style="stroke:#454645;stroke-width:0.5;"/><text fill="#454645" font-family="sans-serif" font-size="14" lengthAdjust="spacing" textLength="164.8281" x="754.49" y="78.4951">IRCTC ComplaintOfficer</text></g><g id="elem_Login"><ellipse cx="304.9141" cy="179.9357" fill="#F1F1F1" rx="38.4641" ry="14.5557" style="stroke:#181818;stroke-width:0.5;"/><text fill="#000000" font-family="sans-serif" font-size="14" lengthAdjust="spacing" textLength="38.0146" x="284.04" y="183.3906">Login</text></g><g id="elem_Register / Create Account"><ellipse cx="485.908" cy="179.9416" fill="#F1F1F1" rx="107.258" ry="23.8516" style="stroke:#181818;stroke-width:0.5;"/><text fill="#000000" font-family="sans-serif" font-size="14" lengthAdjust="spacing" textLength="179.9355" x="395.9403" y="182.7883">Register / Create Account</text></g><g id="elem_See Messages from Officer"><ellipse cx="116.9061" cy="302.6712" fill="#F1F1F1" rx="110.9061" ry="24.5812" style="stroke:#181818;stroke-width:0.5;"/><text fill="#000000" font-family="sans-serif" font-size="14" lengthAdjust="spacing" textLength="187.8379" x="22.9871" y="305.5179">See Messages from Officer</text></g><g id="elem_RegisterComplaint"><ellipse cx="347.9065" cy="302.6693" fill="#F1F1F1" rx="84.7965" ry="19.3593" style="stroke:#181818;stroke-width:0.5;"/><text fill="#000000" font-family="sans-serif" font-size="14" lengthAdjust="spacing" textLength="129.8555" x="282.9764" y="305.5168">RegisterComplaint</text></g><g id="elem_SubmitComplaint"><ellipse cx="464.9111" cy="408.1262" fill="#F1F1F1" rx="81.1311" ry="18.6262" style="stroke:#181818;stroke-width:0.5;"/><text fill="#000000" font-family="sans-serif" font-size="14" lengthAdjust="spacing" textLength="121.249" x="403.0388" y="411.381">SubmitComplaint</text></g><g id="elem_ViewAssignedComplaints"><ellipse cx="915.9133" cy="179.9447" fill="#F1F1F1" rx="105.3233" ry="23.4647" style="stroke:#181818;stroke-width:0.5;"/><text fill="#000000" font-family="sans-serif" font-size="14" lengthAdjust="spacing" textLength="175.7246" x="828.051" y="182.7913">ViewAssignedComplaints</text></g><g id="elem_ProcessComplaint"><ellipse cx="869.9075" cy="302.6735" fill="#F1F1F1" rx="82.8175" ry="18.9635" style="stroke:#181818;stroke-width:0.5;"/><text fill="#000000" font-family="sans-serif" font-size="14" lengthAdjust="spacing" textLength="125.248" x="806.6283" y="305.7409">ProcessComplaint</text></g><g id="elem_UpdateStatus"><ellipse cx="706.9117" cy="408.1343" fill="#F1F1F1" rx="70.9217" ry="16.5843" style="stroke:#181818;stroke-width:0.5;"/><text fill="#000000" font-family="sans-serif" font-size="14" lengthAdjust="spacing" textLength="95.3135" x="656.255" y="411.8819">UpdateStatus</text></g><g id="elem_Resolved"><ellipse cx="1073.9132" cy="408.1259" fill="#F1F1F1" rx="57.7332" ry="14.7559" style="stroke:#181818;stroke-width:0.5;"/><text fill="#000000" font-family="sans-serif" font-size="14" lengthAdjust="spacing" textLength="63.875" x="1038.9757" y="411.8735">Resolved</text></g><!--entity Schedule Categorization Service--><g id="elem_Schedule Categorization Service"><ellipse cx="1367.9072" cy="150.29" fill="#454645" rx="8" ry="8" style="stroke:#454645;stroke-width:0.5;"/><path d="M1367.9072,158.29 L1367.9072,185.29 M1354.9072,166.29 L1380.9072,166.29 M1367.9072,185.29 L1354.9072,200.29 M1367.9072,185.29 L1380.9072,200.29 " fill="none" style="stroke:#454645;stroke-width:0.5;"/><text fill="#454645" font-family="sans-serif" font-size="14" lengthAdjust="spacing" textLength="227.2744" x="1254.27" y="214.7851">Schedule Categorization Service</text></g><g id="elem_IssueFixed"><ellipse cx="1189.9095" cy="302.6739" fill="#F1F1F1" rx="63.3695" ry="15.0739" style="stroke:#181818;stroke-width:0.5;"/><text fill="#000000" font-family="sans-serif" font-size="14" lengthAdjust="spacing" textLength="73.9307" x="1149.9442" y="306.4215">IssueFixed</text></g><g id="elem_KeywordAnalysis"><ellipse cx="1367.9064" cy="302.6713" fill="#F1F1F1" rx="79.9564" ry="18.3913" style="stroke:#181818;stroke-width:0.5;"/><text fill="#000000" font-family="sans-serif" font-size="14" lengthAdjust="spacing" textLength="118.4189" x="1307.0142" y="306.0566">KeywordAnalysis</text></g><g id="elem_CategorizeComplaint"><ellipse cx="1433.9075" cy="408.1255" fill="#F1F1F1" rx="92.3775" ry="20.8755" style="stroke:#181818;stroke-width:0.5;"/><text fill="#000000" font-family="sans-serif" font-size="14" lengthAdjust="spacing" textLength="147.1025" x="1360.3562" y="410.9722">CategorizeComplaint</text></g><g id="elem_AssignToOfficer"><ellipse cx="1433.9085" cy="506.7037" fill="#F1F1F1" rx="76.4685" ry="17.6937" style="stroke:#181818;stroke-width:0.5;"/><text fill="#000000" font-family="sans-serif" font-size="14" lengthAdjust="spacing" textLength="109.7646" x="1376.0261" y="510.4513">AssignToOfficer</text></g><!--link IRCTC Passenger to Login--><g id="link_IRCTC Passenger_Login"><path d="M370.56,82.05 C351.73,109.84 330.4955,141.1728 317.4055,160.4928 " fill="none" id="IRCTC Passenger-to-Login" style="stroke:#454645;stroke-width:1.0;"/><polygon fill="#454645" points="314.04,165.46,322.3997,160.2528,316.8446,161.3206,315.7767,155.7655,314.04,165.46" style="stroke:#454645;stroke-width:1.0;"/></g><!--link IRCTC Passenger to Register / Create Account--><g id="link_IRCTC Passenger_Register / Create Account"><path d="M420.98,82.05 C436.89,105.8 453.6405,130.7853 467.2205,151.0553 " fill="none" id="IRCTC Passenger-to-Register / Create Account" style="stroke:#454645;stroke-width:1.0;"/><polygon fill="#454645" points="470.56,156.04,468.8738,146.3366,467.777,151.8861,462.2275,150.7893,470.56,156.04" style="stroke:#454645;stroke-width:1.0;"/></g><!--link Login to See Messages from Officer--><g id="link_Login_See Messages from Officer"><path d="M286.19,192.96 C254.99,213 196.8783,250.3073 157.1483,275.8273 " fill="none" id="Login-to-See Messages from Officer" style="stroke:#454645;stroke-width:1.0;"/><polygon fill="#454645" points="152.1,279.07,161.8342,277.5715,156.3069,276.3678,157.5106,270.8405,152.1,279.07" style="stroke:#454645;stroke-width:1.0;"/></g><!--link Login to RegisterComplaint--><g id="link_Login_RegisterComplaint"><path d="M309.84,194.79 C317.6,216.59 330.6667,253.2779 339.3367,277.6179 " fill="none" id="Login-to-RegisterComplaint" style="stroke:#454645;stroke-width:1.0;"/><polygon fill="#454645" points="341.35,283.27,342.0981,273.4496,339.6722,278.5599,334.5619,276.134,341.35,283.27" style="stroke:#454645;stroke-width:1.0;"/></g><!--link RegisterComplaint to SubmitComplaint--><g id="link_RegisterComplaint_SubmitComplaint"><path d="M368.55,321.93 C390.2,341.07 419.4754,366.9552 440.7454,385.7652 " fill="none" id="RegisterComplaint-to-SubmitComplaint" style="stroke:#454645;stroke-width:1.0;"/><polygon fill="#454645" points="445.24,389.74,441.148,380.7815,441.4945,386.4277,435.8483,386.7743,445.24,389.74" style="stroke:#454645;stroke-width:1.0;"/></g><!--link Register / Create Account to SubmitComplaint--><g id="link_Register / Create Account_SubmitComplaint"><path d="M483.78,203.87 C479.59,249.02 470.895,342.5957 467.115,383.2857 " fill="none" id="Register / Create Account-to-SubmitComplaint" style="stroke:#454645;stroke-width:1.0;"/><polygon fill="#454645" points="466.56,389.26,471.3753,380.6686,467.0225,384.2814,463.4096,379.9286,466.56,389.26" style="stroke:#454645;stroke-width:1.0;"/></g><!--link ViewAssignedComplaints to ProcessComplaint--><g id="link_ViewAssignedComplaints_ProcessComplaint"><path d="M907.25,203.65 C898.46,226.74 887.1361,256.4531 879.0061,277.7931 " fill="none" id="ViewAssignedComplaints-to-ProcessComplaint" style="stroke:#454645;stroke-width:1.0;"/><polygon fill="#454645" points="876.87,283.4,883.812,276.4137,878.6501,278.7276,876.3362,273.5656,876.87,283.4" style="stroke:#454645;stroke-width:1.0;"/></g><!--link IRCTC ComplaintOfficer to ViewAssignedComplaints--><g id="link_IRCTC ComplaintOfficer_ViewAssignedComplaints"><path d="M858.91,82.05 C872.97,105.96 887.6978,130.9885 899.6278,151.2685 " fill="none" id="IRCTC ComplaintOfficer-to-ViewAssignedComplaints" style="stroke:#454645;stroke-width:1.0;"/><polygon fill="#454645" points="902.67,156.44,901.5543,146.6545,900.1348,152.1304,894.659,150.7108,902.67,156.44" style="stroke:#454645;stroke-width:1.0;"/></g><!--link IRCTC ComplaintOfficer to ProcessComplaint--><g id="link_IRCTC ComplaintOfficer_ProcessComplaint"><path d="M814.3,82.01 C795.74,117.71 775.17,172.66 792.91,218.09 C803.53,245.29 822.965,265.1599 841.395,280.3099 " fill="none" id="IRCTC ComplaintOfficer-to-ProcessComplaint" style="stroke:#454645;stroke-width:1.0;"/><polygon fill="#454645" points="846.03,284.12,841.6176,275.3149,842.1675,280.9449,836.5374,281.4948,846.03,284.12" style="stroke:#454645;stroke-width:1.0;"/></g><!--link IRCTC ComplaintOfficer to UpdateStatus--><g id="link_IRCTC ComplaintOfficer_UpdateStatus"><path d="M811.25,82.13 C800.12,99.66 787.66,121.18 778.91,141.79 C740.47,232.29 718.3354,343.0454 710.7354,385.1654 " fill="none" id="IRCTC ComplaintOfficer-to-UpdateStatus" style="stroke:#454645;stroke-width:1.0;"/><polygon fill="#454645" points="709.67,391.07,715.2046,382.9233,710.5578,386.1495,707.3317,381.5027,709.67,391.07" style="stroke:#454645;stroke-width:1.0;"/></g><!--link IRCTC ComplaintOfficer to Resolved--><g id="link_IRCTC ComplaintOfficer_Resolved"><path d="M919.81,64.24 C962.13,78.6 1010.54,102.63 1038.91,141.79 C1096.55,221.38 1083.7483,344.6391 1077.2383,387.1491 " fill="none" id="IRCTC ComplaintOfficer-to-Resolved" style="stroke:#454645;stroke-width:1.0;"/><polygon fill="#454645" points="1076.33,393.08,1081.6463,384.7892,1077.0869,388.1376,1073.7385,383.5782,1076.33,393.08" style="stroke:#454645;stroke-width:1.0;"/></g><!--link ProcessComplaint to UpdateStatus--><g id="link_ProcessComplaint_UpdateStatus"><path d="M842.62,320.99 C811.27,340.89 765.3755,370.0143 735.6355,388.8943 " fill="none" id="ProcessComplaint-to-UpdateStatus" style="stroke:#454645;stroke-width:1.0;"/><polygon fill="#454645" points="730.57,392.11,740.312,390.6634,734.7912,389.4302,736.0244,383.9094,730.57,392.11" style="stroke:#454645;stroke-width:1.0;"/></g><!--link ProcessComplaint to Resolved--><g id="link_ProcessComplaint_Resolved"><path d="M902.68,320.29 C943.45,340.97 1006.8187,373.1065 1043.5787,391.7465 " fill="none" id="ProcessComplaint-to-Resolved" style="stroke:#454645;stroke-width:1.0;"/><polygon fill="#454645" points="1048.93,394.46,1042.712,386.8222,1044.4706,392.1987,1039.094,393.9573,1048.93,394.46" style="stroke:#454645;stroke-width:1.0;"/></g><!--link Schedule Categorization Service to IssueFixed--><g id="link_Schedule Categorization Service_IssueFixed"><path d="M1312.56,218.48 C1277.66,242.15 1239.6256,267.952 1214.9156,284.712 " fill="none" id="Schedule Categorization Service-to-IssueFixed" style="stroke:#454645;stroke-width:1.0;"/><polygon fill="#454645" points="1209.95,288.08,1219.6436,286.3384,1214.088,285.2734,1215.153,279.7177,1209.95,288.08" style="stroke:#454645;stroke-width:1.0;"/></g><!--link Schedule Categorization Service to KeywordAnalysis--><g id="link_Schedule Categorization Service_KeywordAnalysis"><path d="M1367.91,218.48 C1367.91,240.35 1367.91,260.91 1367.91,278.05 " fill="none" id="Schedule Categorization Service-to-KeywordAnalysis" style="stroke:#454645;stroke-width:1.0;"/><polygon fill="#454645" points="1367.91,284.05,1371.91,275.05,1367.91,279.05,1363.91,275.05,1367.91,284.05" style="stroke:#454645;stroke-width:1.0;"/></g><!--link Schedule Categorization Service to CategorizeComplaint--><g id="link_Schedule Categorization Service_CategorizeComplaint"><path d="M1419.61,218.56 C1437.47,234.66 1455.38,255.07 1464.91,278.09 C1480.23,315.13 1463.2988,356.1767 1449.0288,382.0367 " fill="none" id="Schedule Categorization Service-to-CategorizeComplaint" style="stroke:#454645;stroke-width:1.0;"/><polygon fill="#454645" points="1446.13,387.29,1453.9804,381.3427,1448.5457,382.9123,1446.9761,377.4776,1446.13,387.29" style="stroke:#454645;stroke-width:1.0;"/></g><!--link KeywordAnalysis to CategorizeComplaint--><g id="link_KeywordAnalysis_CategorizeComplaint"><path d="M1379.1,321.22 C1390.72,339.44 1405.6545,362.8308 1417.8445,381.9508 " fill="none" id="KeywordAnalysis-to-CategorizeComplaint" style="stroke:#454645;stroke-width:1.0;"/><polygon fill="#454645" points="1421.07,387.01,1419.6045,377.2708,1418.3821,382.794,1412.8589,381.5715,1421.07,387.01" style="stroke:#454645;stroke-width:1.0;"/></g><!--link CategorizeComplaint to AssignToOfficer--><g id="link_CategorizeComplaint_AssignToOfficer"><path d="M1433.91,429.14 C1433.91,446.7 1433.91,465.98 1433.91,482.62 " fill="none" id="CategorizeComplaint-to-AssignToOfficer" style="stroke:#454645;stroke-width:1.0;"/><polygon fill="#454645" points="1433.91,488.62,1437.91,479.62,1433.91,483.62,1429.91,479.62,1433.91,488.62" style="stroke:#454645;stroke-width:1.0;"/></g><!--link IssueFixed to Resolved--><g id="link_IssueFixed_Resolved"><path d="M1174.26,317.62 C1151.88,337.59 1115.4575,370.066 1093.4175,389.726 " fill="none" id="IssueFixed-to-Resolved" style="stroke:#454645;stroke-width:1.0;"/><polygon fill="#454645" points="1088.94,393.72,1098.3189,390.714,1092.6712,390.3917,1092.9936,384.744,1088.94,393.72" style="stroke:#454645;stroke-width:1.0;"/></g><!--SRC=[ZPB1ReCm38RlF8N7QHoglS4aX3IfsgfLqEwU1fDQWgIA0rtxz0F141HeUxN_x_zj9o_kY0L2HGShjFE4TCQ2luwZNGHRmOnQeVN7zSWKfroGTjzPHh9fUnC2LgjtUFqoYdImr8rH4Jkqy0QHHU4GGYbDgLtWUHtQ2XD4s22pKCYGMLD0bnoCTV-6_O2DqRJOcPQ7WjoiT3hG8l93U0wPIMbC-mPt-gqriXvx22oTi0KMt1vGqvZx-lqfhNTBd73bG-yOsUGLfiskavmvkoNLmCXFv17JCaU8Qb0PIrVXo6X8q5PrTXUzPYxnWtuRvada4ozdOzDGY_p2n4zpVHD7ZtjhTqSyMstrxOFkJFzdlU5gDzVv0m00]--></g></svg>