<svg xmlns="http://www.w3.org/2000/svg" contentStyleType="text/css"
     height="618px" preserveAspectRatio="none" style="width:202px;height:618px;background:#FFFFFF;" version="1.1"
     viewBox="0 0 202 618" width="202px" zoomAndPan="magnify">
    <defs/>
    <g>
        <ellipse cx="100.2769" cy="20" fill="#222222" rx="10" ry="10" style="stroke:#222222;stroke-width:1.0;"/>
        <rect fill="#F1F1F1" height="35.9609" rx="3.5" ry="3.5" style="stroke:#181818;stroke-width:0.5;"
              width="103.3672" x="48.5933" y="50"/>
        <text fill="#000000" font-family="sans-serif" font-size="12" lengthAdjust="spacing" textLength="83.3672"
              x="58.5933" y="72.9492">Complaint Filed
        </text>
        <rect fill="#F1F1F1" height="35.9609" rx="3.5" ry="3.5" style="stroke:#181818;stroke-width:0.5;"
              width="169.3965" x="15.5786" y="105.9609"/>
        <text fill="#000000" font-family="sans-serif" font-size="12" lengthAdjust="spacing" textLength="149.3965"
              x="25.5786" y="128.9102">Keyword Analysis Complete
        </text>
        <rect fill="#F1F1F1" height="35.9609" rx="3.5" ry="3.5" style="stroke:#181818;stroke-width:0.5;"
              width="142.0625" x="29.2456" y="161.9219"/>
        <text fill="#000000" font-family="sans-serif" font-size="12" lengthAdjust="spacing" textLength="122.0625"
              x="39.2456" y="184.8711">Complaint Categorized
        </text>
        <rect fill="#F1F1F1" height="35.9609" rx="3.5" ry="3.5" style="stroke:#181818;stroke-width:0.5;"
              width="148.7363" x="25.9087" y="217.8828"/>
        <text fill="#000000" font-family="sans-serif" font-size="12" lengthAdjust="spacing" textLength="128.7363"
              x="35.9087" y="240.832">Assigned to Department
        </text>
        <rect fill="#F1F1F1" height="35.9609" rx="3.5" ry="3.5" style="stroke:#181818;stroke-width:0.5;"
              width="121.3789" x="39.5874" y="273.8438"/>
        <text fill="#000000" font-family="sans-serif" font-size="12" lengthAdjust="spacing" textLength="101.3789"
              x="49.5874" y="296.793">Assigned to Officer
        </text>
        <rect fill="#F1F1F1" height="35.9609" rx="3.5" ry="3.5" style="stroke:#181818;stroke-width:0.5;" width="81.3594"
              x="59.5972" y="387.1748"/>
        <text fill="#000000" font-family="sans-serif" font-size="12" lengthAdjust="spacing" textLength="61.3594"
              x="69.5972" y="410.124">In Progress
        </text>
        <rect fill="#F1F1F1" height="35.9609" rx="3.5" ry="3.5" style="stroke:#181818;stroke-width:0.5;"
              width="112.7246" x="43.9146" y="451.3203"/>
        <text fill="#000000" font-family="sans-serif" font-size="12" lengthAdjust="spacing" textLength="92.7246"
              x="53.9146" y="474.2695">Messages Added
        </text>
        <polygon fill="#F1F1F1"
                 points="48,329.8047,152.5537,329.8047,164.5537,341.8047,152.5537,353.8047,48,353.8047,36,341.8047,48,329.8047"
                 style="stroke:#181818;stroke-width:0.5;"/>
        <text fill="#000000" font-family="sans-serif" font-size="11" lengthAdjust="spacing" textLength="14.0615"
              x="104.2769" y="365.6748">No
        </text>
        <text fill="#000000" font-family="sans-serif" font-size="11" lengthAdjust="spacing" textLength="104.5537" x="48"
              y="346.3594">Complaint Resolved?
        </text>
        <text fill="#000000" font-family="sans-serif" font-size="11" lengthAdjust="spacing" textLength="18.9546"
              x="17.0454" y="339.0439">Yes
        </text>
        <rect fill="#F1F1F1" height="35.9609" rx="3.5" ry="3.5" style="stroke:#181818;stroke-width:0.5;" width="148.584"
              x="25.9849" y="529.2813"/>
        <text fill="#000000" font-family="sans-serif" font-size="12" lengthAdjust="spacing" textLength="128.584"
              x="35.9849" y="552.2305">Status set to "Resolved"
        </text>
        <ellipse cx="100.2769" cy="596.2422" fill="none" rx="11" ry="11" style="stroke:#222222;stroke-width:1.0;"/>
        <ellipse cx="100.2769" cy="596.2422" fill="#222222" rx="6" ry="6" style="stroke:#222222;stroke-width:1.0;"/>
        <line style="stroke:#454645;stroke-width:1.0;" x1="100.2769" x2="100.2769" y1="30" y2="50"/>
        <polygon fill="#454645" points="96.2769,40,100.2769,50,104.2769,40,100.2769,44"
                 style="stroke:#454645;stroke-width:1.0;"/>
        <line style="stroke:#454645;stroke-width:1.0;" x1="100.2769" x2="100.2769" y1="85.9609" y2="105.9609"/>
        <polygon fill="#454645" points="96.2769,95.9609,100.2769,105.9609,104.2769,95.9609,100.2769,99.9609"
                 style="stroke:#454645;stroke-width:1.0;"/>
        <line style="stroke:#454645;stroke-width:1.0;" x1="100.2769" x2="100.2769" y1="141.9219" y2="161.9219"/>
        <polygon fill="#454645" points="96.2769,151.9219,100.2769,161.9219,104.2769,151.9219,100.2769,155.9219"
                 style="stroke:#454645;stroke-width:1.0;"/>
        <line style="stroke:#454645;stroke-width:1.0;" x1="100.2769" x2="100.2769" y1="197.8828" y2="217.8828"/>
        <polygon fill="#454645" points="96.2769,207.8828,100.2769,217.8828,104.2769,207.8828,100.2769,211.8828"
                 style="stroke:#454645;stroke-width:1.0;"/>
        <line style="stroke:#454645;stroke-width:1.0;" x1="100.2769" x2="100.2769" y1="253.8438" y2="273.8438"/>
        <polygon fill="#454645" points="96.2769,263.8438,100.2769,273.8438,104.2769,263.8438,100.2769,267.8438"
                 style="stroke:#454645;stroke-width:1.0;"/>
        <line style="stroke:#454645;stroke-width:1.0;" x1="100.2769" x2="100.2769" y1="423.1357" y2="451.3203"/>
        <polygon fill="#454645" points="96.2769,441.3203,100.2769,451.3203,104.2769,441.3203,100.2769,445.3203"
                 style="stroke:#454645;stroke-width:1.0;"/>
        <line style="stroke:#454645;stroke-width:1.0;" x1="100.2769" x2="100.2769" y1="353.8047" y2="387.1748"/>
        <polygon fill="#454645" points="96.2769,377.1748,100.2769,387.1748,104.2769,377.1748,100.2769,381.1748"
                 style="stroke:#454645;stroke-width:1.0;"/>
        <line style="stroke:#454645;stroke-width:1.0;" x1="100.2769" x2="100.2769" y1="487.2813" y2="497.2813"/>
        <line style="stroke:#454645;stroke-width:1.0;" x1="100.2769" x2="176.5537" y1="497.2813" y2="497.2813"/>
        <polygon fill="#454645" points="172.5537,431.3203,176.5537,421.3203,180.5537,431.3203,176.5537,427.3203"
                 style="stroke:#454645;stroke-width:1.0;"/>
        <line style="stroke:#454645;stroke-width:1.0;" x1="176.5537" x2="176.5537" y1="341.8047" y2="497.2813"/>
        <line style="stroke:#454645;stroke-width:1.0;" x1="176.5537" x2="164.5537" y1="341.8047" y2="341.8047"/>
        <polygon fill="#454645" points="174.5537,337.8047,164.5537,341.8047,174.5537,345.8047,170.5537,341.8047"
                 style="stroke:#454645;stroke-width:1.0;"/>
        <line style="stroke:#454645;stroke-width:1.0;" x1="36" x2="24" y1="341.8047" y2="341.8047"/>
        <polygon fill="#454645" points="20,417.3203,24,427.3203,28,417.3203,24,421.3203"
                 style="stroke:#454645;stroke-width:1.0;"/>
        <line style="stroke:#454645;stroke-width:1.0;" x1="24" x2="24" y1="341.8047" y2="509.2813"/>
        <line style="stroke:#454645;stroke-width:1.0;" x1="24" x2="100.2769" y1="509.2813" y2="509.2813"/>
        <line style="stroke:#454645;stroke-width:1.0;" x1="100.2769" x2="100.2769" y1="509.2813" y2="529.2813"/>
        <polygon fill="#454645" points="96.2769,519.2813,100.2769,529.2813,104.2769,519.2813,100.2769,523.2813"
                 style="stroke:#454645;stroke-width:1.0;"/>
        <line style="stroke:#454645;stroke-width:1.0;" x1="100.2769" x2="100.2769" y1="309.8047" y2="329.8047"/>
        <polygon fill="#454645" points="96.2769,319.8047,100.2769,329.8047,104.2769,319.8047,100.2769,323.8047"
                 style="stroke:#454645;stroke-width:1.0;"/>
        <line style="stroke:#454645;stroke-width:1.0;" x1="100.2769" x2="100.2769" y1="565.2422" y2="585.2422"/>
        <polygon fill="#454645" points="96.2769,575.2422,100.2769,585.2422,104.2769,575.2422,100.2769,579.2422"
                 style="stroke:#454645;stroke-width:1.0;"/><!--SRC=[NO_B2i9034Nt-Oheolv2Po554KHye2kNetEj0-rCcKHB_NfRKHHt2RavXplIAshmtP-I3KeaQfDIFejrKraVb1U-WZEKhz2rCJakWgqwySAl21JcDpspYZ8c_tZz52A-372iaUTeUdADe7-7xUNYpqY6gBtsBfvyQNj8hEvmqunxuMGJCsBEbu5tAPO98cROr_rWImWNpWrQ1FSc7I4PvGUrUXCMwA0RVw1ZCxID3Jq1]-->
    </g>
</svg>
