<svg xmlns="http://www.w3.org/2000/svg" contentStyleType="text/css"
     height="678px" preserveAspectRatio="none" style="width:589px;height:678px;background:#FFFFFF;" version="1.1"
     viewBox="0 0 589 678" width="589px" zoomAndPan="magnify">
    <defs/>
    <g>
        <ellipse cx="233.5742" cy="20" fill="#222222" rx="10" ry="10" style="stroke:#222222;stroke-width:1.0;"/>
        <polygon fill="#F1F1F1"
                 points="150.7197,50,316.4287,50,328.4287,62,316.4287,74,150.7197,74,138.7197,62,150.7197,50"
                 style="stroke:#181818;stroke-width:0.5;"/>
        <text fill="#000000" font-family="sans-serif" font-size="11" lengthAdjust="spacing" textLength="165.709"
              x="150.7197" y="66.5547">Scheduled Categorization Service
        </text>
        <text fill="#000000" font-family="sans-serif" font-size="11" lengthAdjust="spacing" textLength="18.9546"
              x="119.7651" y="59.2393">Yes
        </text>
        <text fill="#000000" font-family="sans-serif" font-size="11" lengthAdjust="spacing" textLength="14.0615"
              x="328.4287" y="59.2393">No
        </text>
        <rect fill="#F1F1F1" height="35.9609" rx="3.5" ry="3.5" style="stroke:#181818;stroke-width:0.5;"
              width="114.7051" x="31.0156" y="84"/>
        <text fill="#000000" font-family="sans-serif" font-size="12" lengthAdjust="spacing" textLength="94.7051"
              x="41.0156" y="106.9492">Keyword Analysis
        </text>
        <rect fill="#F1F1F1" height="35.9609" rx="3.5" ry="3.5" style="stroke:#181818;stroke-width:0.5;"
              width="154.7363" x="11" y="139.9609"/>
        <text fill="#000000" font-family="sans-serif" font-size="12" lengthAdjust="spacing" textLength="134.7363" x="21"
              y="162.9102">Complaint Categorization
        </text>
        <rect fill="#F1F1F1" height="35.9609" rx="3.5" ry="3.5" style="stroke:#181818;stroke-width:0.5;"
              width="148.7246" x="14.0059" y="210.9219"/>
        <text fill="#000000" font-family="sans-serif" font-size="12" lengthAdjust="spacing" textLength="128.7246"
              x="24.0059" y="233.8711">Department Assignment
        </text>
        <rect fill="#F1F1F1" height="35.9609" rx="3.5" ry="3.5" style="stroke:#181818;stroke-width:0.5;"
              width="121.3672" x="27.6846" y="281.8828"/>
        <text fill="#000000" font-family="sans-serif" font-size="12" lengthAdjust="spacing" textLength="101.3672"
              x="37.6846" y="304.832">Officer Assignment
        </text>
        <rect fill="#F1F1F1" height="35.9609" rx="3.5" ry="3.5" style="stroke:#181818;stroke-width:0.5;" width="49.3613"
              x="354.0996" y="84"/>
        <text fill="#000000" font-family="sans-serif" font-size="12" lengthAdjust="spacing" textLength="29.3613"
              x="364.0996" y="106.9492">Login
        </text>
        <polygon fill="#F1F1F1"
                 points="331.7053,139.9609,425.8552,139.9609,437.8552,151.9609,425.8552,163.9609,331.7053,163.9609,319.7053,151.9609,331.7053,139.9609"
                 style="stroke:#181818;stroke-width:0.5;"/>
        <text fill="#000000" font-family="sans-serif" font-size="11" lengthAdjust="spacing" textLength="94.1499"
              x="331.7053" y="156.5156">Passenger / Officer
        </text>
        <text fill="#000000" font-family="sans-serif" font-size="11" lengthAdjust="spacing" textLength="52.5884"
              x="267.1169" y="149.2002">Passenger
        </text>
        <text fill="#000000" font-family="sans-serif" font-size="11" lengthAdjust="spacing" textLength="32.3931"
              x="437.8552" y="149.2002">Officer
        </text>
        <rect fill="#F1F1F1" height="35.9609" rx="3.5" ry="3.5" style="stroke:#181818;stroke-width:0.5;"
              width="124.0332" x="219.7363" y="236.5918"/>
        <text fill="#000000" font-family="sans-serif" font-size="12" lengthAdjust="spacing" textLength="104.0332"
              x="229.7363" y="259.541">File New Complaint
        </text>
        <polygon fill="#F1F1F1"
                 points="241.4026,173.9609,322.1033,173.9609,334.1033,185.9609,322.1033,197.9609,241.4026,197.9609,229.4026,185.9609,241.4026,173.9609"
                 style="stroke:#181818;stroke-width:0.5;"/>
        <text fill="#000000" font-family="sans-serif" font-size="11" lengthAdjust="spacing" textLength="18.9546"
              x="285.7529" y="209.8311">Yes
        </text>
        <text fill="#000000" font-family="sans-serif" font-size="11" lengthAdjust="spacing" textLength="80.7007"
              x="241.4026" y="190.5156">New Complaint?
        </text>
        <text fill="#000000" font-family="sans-serif" font-size="11" lengthAdjust="spacing" textLength="14.0615"
              x="215.3411" y="183.2002">No
        </text>
        <rect fill="#F1F1F1" height="35.9609" rx="3.5" ry="3.5" style="stroke:#181818;stroke-width:0.5;"
              width="144.7168" x="209.3945" y="331.5527"/>
        <text fill="#000000" font-family="sans-serif" font-size="12" lengthAdjust="spacing" textLength="124.7168"
              x="219.3945" y="354.502">Check Past Complaints
        </text>
        <rect fill="#F1F1F1" height="35.9609" rx="3.5" ry="3.5" style="stroke:#181818;stroke-width:0.5;"
              width="148.7246" x="207.3906" y="402.5137"/>
        <text fill="#000000" font-family="sans-serif" font-size="12" lengthAdjust="spacing" textLength="128.7246"
              x="217.3906" y="425.4629">Check Complaint Status
        </text>
        <rect fill="#F1F1F1" height="35.9609" rx="3.5" ry="3.5" style="stroke:#181818;stroke-width:0.5;"
              width="112.0391" x="225.7334" y="473.4746"/>
        <text fill="#000000" font-family="sans-serif" font-size="12" lengthAdjust="spacing" textLength="92.0391"
              x="235.7334" y="496.4238">Check Messages
        </text>
        <rect fill="#F1F1F1" height="35.9609" rx="3.5" ry="3.5" style="stroke:#181818;stroke-width:0.5;"
              width="162.0664" x="394.7744" y="173.9609"/>
        <text fill="#000000" font-family="sans-serif" font-size="12" lengthAdjust="spacing" textLength="142.0664"
              x="404.7744" y="196.9102">View Assigned Complaints
        </text>
        <rect fill="#F1F1F1" height="35.9609" rx="3.5" ry="3.5" style="stroke:#181818;stroke-width:0.5;"
              width="151.3848" x="400.1152" y="307.5527"/>
        <text fill="#000000" font-family="sans-serif" font-size="12" lengthAdjust="spacing" textLength="131.3848"
              x="410.1152" y="330.502">Check Complaint Details
        </text>
        <rect fill="#F1F1F1" height="35.9609" rx="3.5" ry="3.5" style="stroke:#181818;stroke-width:0.5;" width="99.377"
              x="426.1191" y="378.5137"/>
        <text fill="#000000" font-family="sans-serif" font-size="12" lengthAdjust="spacing" textLength="79.377"
              x="436.1191" y="401.4629">Add Messages
        </text>
        <rect fill="#F1F1F1" height="35.9609" rx="3.5" ry="3.5" style="stroke:#181818;stroke-width:0.5;"
              width="120.7051" x="415.4551" y="449.4746"/>
        <text fill="#000000" font-family="sans-serif" font-size="12" lengthAdjust="spacing" textLength="100.7051"
              x="425.4551" y="472.4238">Process Complaint
        </text>
        <polygon fill="#F1F1F1"
                 points="423.5308,244.9219,528.0845,244.9219,540.0845,256.9219,528.0845,268.9219,423.5308,268.9219,411.5308,256.9219,423.5308,244.9219"
                 style="stroke:#181818;stroke-width:0.5;"/>
        <text fill="#000000" font-family="sans-serif" font-size="11" lengthAdjust="spacing" textLength="14.0615"
              x="479.8076" y="280.792">No
        </text>
        <text fill="#000000" font-family="sans-serif" font-size="11" lengthAdjust="spacing" textLength="104.5537"
              x="423.5308" y="261.4766">Complaint Resolved?
        </text>
        <text fill="#000000" font-family="sans-serif" font-size="11" lengthAdjust="spacing" textLength="18.9546"
              x="392.5762" y="254.1611">Yes
        </text>
        <rect fill="#F1F1F1" height="35.9609" rx="3.5" ry="3.5" style="stroke:#181818;stroke-width:0.5;"
              width="153.4063" x="399.1045" y="529.4355"/>
        <text fill="#000000" font-family="sans-serif" font-size="12" lengthAdjust="spacing" textLength="133.4063"
              x="409.1045" y="552.3848">Update Complaint Status
        </text>
        <polygon fill="#F1F1F1"
                 points="378.7803,571.3965,390.7803,583.3965,378.7803,595.3965,366.7803,583.3965,378.7803,571.3965"
                 style="stroke:#181818;stroke-width:0.5;"/>
        <polygon fill="#F1F1F1"
                 points="233.5742,601.3965,245.5742,613.3965,233.5742,625.3965,221.5742,613.3965,233.5742,601.3965"
                 style="stroke:#181818;stroke-width:0.5;"/>
        <ellipse cx="233.5742" cy="656.3965" fill="none" rx="11" ry="11" style="stroke:#222222;stroke-width:1.0;"/>
        <ellipse cx="233.5742" cy="656.3965" fill="#222222" rx="6" ry="6" style="stroke:#222222;stroke-width:1.0;"/>
        <line style="stroke:#454645;stroke-width:1.0;" x1="88.3682" x2="88.3682" y1="119.9609" y2="139.9609"/>
        <polygon fill="#454645" points="84.3682,129.9609,88.3682,139.9609,92.3682,129.9609,88.3682,133.9609"
                 style="stroke:#454645;stroke-width:1.0;"/>
        <line style="stroke:#454645;stroke-width:1.0;" x1="88.3682" x2="88.3682" y1="175.9219" y2="210.9219"/>
        <polygon fill="#454645" points="84.3682,200.9219,88.3682,210.9219,92.3682,200.9219,88.3682,204.9219"
                 style="stroke:#454645;stroke-width:1.0;"/>
        <line style="stroke:#454645;stroke-width:1.0;" x1="88.3682" x2="88.3682" y1="246.8828" y2="281.8828"/>
        <polygon fill="#454645" points="84.3682,271.8828,88.3682,281.8828,92.3682,271.8828,88.3682,275.8828"
                 style="stroke:#454645;stroke-width:1.0;"/>
        <line style="stroke:#454645;stroke-width:1.0;" x1="281.7529" x2="281.7529" y1="197.9609" y2="236.5918"/>
        <polygon fill="#454645" points="277.7529,226.5918,281.7529,236.5918,285.7529,226.5918,281.7529,230.5918"
                 style="stroke:#454645;stroke-width:1.0;"/>
        <line style="stroke:#454645;stroke-width:1.0;" x1="281.7529" x2="281.7529" y1="272.5527" y2="284.5527"/>
        <line style="stroke:#454645;stroke-width:1.0;" x1="281.7529" x2="355.7695" y1="284.5527" y2="284.5527"/>
        <polygon fill="#454645" points="351.7695,245.2568,355.7695,235.2568,359.7695,245.2568,355.7695,241.2568"
                 style="stroke:#454645;stroke-width:1.0;"/>
        <line style="stroke:#454645;stroke-width:1.0;" x1="355.7695" x2="355.7695" y1="185.9609" y2="284.5527"/>
        <line style="stroke:#454645;stroke-width:1.0;" x1="355.7695" x2="334.1033" y1="185.9609" y2="185.9609"/>
        <polygon fill="#454645" points="344.1033,181.9609,334.1033,185.9609,344.1033,189.9609,340.1033,185.9609"
                 style="stroke:#454645;stroke-width:1.0;"/>
        <line style="stroke:#454645;stroke-width:1.0;" x1="229.4026" x2="207.7363" y1="185.9609" y2="185.9609"/>
        <polygon fill="#454645" points="203.7363,231.2568,207.7363,241.2568,211.7363,231.2568,207.7363,235.2568"
                 style="stroke:#454645;stroke-width:1.0;"/>
        <line style="stroke:#454645;stroke-width:1.0;" x1="207.7363" x2="207.7363" y1="185.9609" y2="296.5527"/>
        <line style="stroke:#454645;stroke-width:1.0;" x1="207.7363" x2="281.7529" y1="296.5527" y2="296.5527"/>
        <line style="stroke:#454645;stroke-width:1.0;" x1="281.7529" x2="281.7529" y1="296.5527" y2="331.5527"/>
        <polygon fill="#454645" points="277.7529,321.5527,281.7529,331.5527,285.7529,321.5527,281.7529,325.5527"
                 style="stroke:#454645;stroke-width:1.0;"/>
        <line style="stroke:#454645;stroke-width:1.0;" x1="281.7529" x2="281.7529" y1="367.5137" y2="402.5137"/>
        <polygon fill="#454645" points="277.7529,392.5137,281.7529,402.5137,285.7529,392.5137,281.7529,396.5137"
                 style="stroke:#454645;stroke-width:1.0;"/>
        <line style="stroke:#454645;stroke-width:1.0;" x1="281.7529" x2="281.7529" y1="438.4746" y2="473.4746"/>
        <polygon fill="#454645" points="277.7529,463.4746,281.7529,473.4746,285.7529,463.4746,281.7529,467.4746"
                 style="stroke:#454645;stroke-width:1.0;"/>
        <line style="stroke:#454645;stroke-width:1.0;" x1="475.8076" x2="475.8076" y1="343.5137" y2="378.5137"/>
        <polygon fill="#454645" points="471.8076,368.5137,475.8076,378.5137,479.8076,368.5137,475.8076,372.5137"
                 style="stroke:#454645;stroke-width:1.0;"/>
        <line style="stroke:#454645;stroke-width:1.0;" x1="475.8076" x2="475.8076" y1="414.4746" y2="449.4746"/>
        <polygon fill="#454645" points="471.8076,439.4746,475.8076,449.4746,479.8076,439.4746,475.8076,443.4746"
                 style="stroke:#454645;stroke-width:1.0;"/>
        <line style="stroke:#454645;stroke-width:1.0;" x1="475.8076" x2="475.8076" y1="268.9219" y2="307.5527"/>
        <polygon fill="#454645" points="471.8076,297.5527,475.8076,307.5527,479.8076,297.5527,475.8076,301.5527"
                 style="stroke:#454645;stroke-width:1.0;"/>
        <line style="stroke:#454645;stroke-width:1.0;" x1="475.8076" x2="475.8076" y1="485.4355" y2="497.4355"/>
        <line style="stroke:#454645;stroke-width:1.0;" x1="475.8076" x2="563.5" y1="497.4355" y2="497.4355"/>
        <polygon fill="#454645" points="559.5,387.1787,563.5,377.1787,567.5,387.1787,563.5,383.1787"
                 style="stroke:#454645;stroke-width:1.0;"/>
        <line style="stroke:#454645;stroke-width:1.0;" x1="563.5" x2="563.5" y1="256.9219" y2="497.4355"/>
        <line style="stroke:#454645;stroke-width:1.0;" x1="563.5" x2="540.0845" y1="256.9219" y2="256.9219"/>
        <polygon fill="#454645" points="550.0845,252.9219,540.0845,256.9219,550.0845,260.9219,546.0845,256.9219"
                 style="stroke:#454645;stroke-width:1.0;"/>
        <line style="stroke:#454645;stroke-width:1.0;" x1="411.5308" x2="388.1152" y1="256.9219" y2="256.9219"/>
        <polygon fill="#454645" points="384.1152,373.1787,388.1152,383.1787,392.1152,373.1787,388.1152,377.1787"
                 style="stroke:#454645;stroke-width:1.0;"/>
        <line style="stroke:#454645;stroke-width:1.0;" x1="388.1152" x2="388.1152" y1="256.9219" y2="509.4355"/>
        <line style="stroke:#454645;stroke-width:1.0;" x1="388.1152" x2="475.8076" y1="509.4355" y2="509.4355"/>
        <line style="stroke:#454645;stroke-width:1.0;" x1="475.8076" x2="475.8076" y1="509.4355" y2="529.4355"/>
        <polygon fill="#454645" points="471.8076,519.4355,475.8076,529.4355,479.8076,519.4355,475.8076,523.4355"
                 style="stroke:#454645;stroke-width:1.0;"/>
        <line style="stroke:#454645;stroke-width:1.0;" x1="475.8076" x2="475.8076" y1="209.9219" y2="244.9219"/>
        <polygon fill="#454645" points="471.8076,234.9219,475.8076,244.9219,479.8076,234.9219,475.8076,238.9219"
                 style="stroke:#454645;stroke-width:1.0;"/>
        <line style="stroke:#454645;stroke-width:1.0;" x1="319.7053" x2="281.7529" y1="151.9609" y2="151.9609"/>
        <line style="stroke:#454645;stroke-width:1.0;" x1="281.7529" x2="281.7529" y1="151.9609" y2="173.9609"/>
        <polygon fill="#454645" points="277.7529,163.9609,281.7529,173.9609,285.7529,163.9609,281.7529,167.9609"
                 style="stroke:#454645;stroke-width:1.0;"/>
        <line style="stroke:#454645;stroke-width:1.0;" x1="437.8552" x2="475.8076" y1="151.9609" y2="151.9609"/>
        <line style="stroke:#454645;stroke-width:1.0;" x1="475.8076" x2="475.8076" y1="151.9609" y2="173.9609"/>
        <polygon fill="#454645" points="471.8076,163.9609,475.8076,173.9609,479.8076,163.9609,475.8076,167.9609"
                 style="stroke:#454645;stroke-width:1.0;"/>
        <line style="stroke:#454645;stroke-width:1.0;" x1="281.7529" x2="281.7529" y1="509.4355" y2="583.3965"/>
        <line style="stroke:#454645;stroke-width:1.0;" x1="281.7529" x2="366.7803" y1="583.3965" y2="583.3965"/>
        <polygon fill="#454645" points="356.7803,579.3965,366.7803,583.3965,356.7803,587.3965,360.7803,583.3965"
                 style="stroke:#454645;stroke-width:1.0;"/>
        <line style="stroke:#454645;stroke-width:1.0;" x1="475.8076" x2="475.8076" y1="565.3965" y2="583.3965"/>
        <line style="stroke:#454645;stroke-width:1.0;" x1="475.8076" x2="390.7803" y1="583.3965" y2="583.3965"/>
        <polygon fill="#454645" points="400.7803,579.3965,390.7803,583.3965,400.7803,587.3965,396.7803,583.3965"
                 style="stroke:#454645;stroke-width:1.0;"/>
        <line style="stroke:#454645;stroke-width:1.0;" x1="378.7803" x2="378.7803" y1="119.9609" y2="139.9609"/>
        <polygon fill="#454645" points="374.7803,129.9609,378.7803,139.9609,382.7803,129.9609,378.7803,133.9609"
                 style="stroke:#454645;stroke-width:1.0;"/>
        <line style="stroke:#454645;stroke-width:1.0;" x1="138.7197" x2="88.3682" y1="62" y2="62"/>
        <line style="stroke:#454645;stroke-width:1.0;" x1="88.3682" x2="88.3682" y1="62" y2="84"/>
        <polygon fill="#454645" points="84.3682,74,88.3682,84,92.3682,74,88.3682,78"
                 style="stroke:#454645;stroke-width:1.0;"/>
        <line style="stroke:#454645;stroke-width:1.0;" x1="328.4287" x2="378.7803" y1="62" y2="62"/>
        <line style="stroke:#454645;stroke-width:1.0;" x1="378.7803" x2="378.7803" y1="62" y2="84"/>
        <polygon fill="#454645" points="374.7803,74,378.7803,84,382.7803,74,378.7803,78"
                 style="stroke:#454645;stroke-width:1.0;"/>
        <line style="stroke:#454645;stroke-width:1.0;" x1="88.3682" x2="88.3682" y1="317.8438" y2="613.3965"/>
        <line style="stroke:#454645;stroke-width:1.0;" x1="88.3682" x2="221.5742" y1="613.3965" y2="613.3965"/>
        <polygon fill="#454645" points="211.5742,609.3965,221.5742,613.3965,211.5742,617.3965,215.5742,613.3965"
                 style="stroke:#454645;stroke-width:1.0;"/>
        <line style="stroke:#454645;stroke-width:1.0;" x1="378.7803" x2="378.7803" y1="595.3965" y2="613.3965"/>
        <line style="stroke:#454645;stroke-width:1.0;" x1="378.7803" x2="245.5742" y1="613.3965" y2="613.3965"/>
        <polygon fill="#454645" points="255.5742,609.3965,245.5742,613.3965,255.5742,617.3965,251.5742,613.3965"
                 style="stroke:#454645;stroke-width:1.0;"/>
        <line style="stroke:#454645;stroke-width:1.0;" x1="233.5742" x2="233.5742" y1="30" y2="50"/>
        <polygon fill="#454645" points="229.5742,40,233.5742,50,237.5742,40,233.5742,44"
                 style="stroke:#454645;stroke-width:1.0;"/>
        <line style="stroke:#454645;stroke-width:1.0;" x1="233.5742" x2="233.5742" y1="625.3965" y2="645.3965"/>
        <polygon fill="#454645" points="229.5742,635.3965,233.5742,645.3965,237.5742,635.3965,233.5742,639.3965"
                 style="stroke:#454645;stroke-width:1.0;"/><!--SRC=[TL4zRuCm4Dtv5TSDfkxfK26YBlsAYbgfeuiFEDNOoEU0qbzVEvW0LSfWeNllteTzurhi40RwiaAxX9smBg4Qqh9gKHuLIYY4myPO-X6EZ8OIxK0LPk0tDQIVo5a2_jizucaqLaAkXJenyTqqBapNAq7Q_H6Ay1vxRzcXntDcQdJuZTXhNNidkm5GCKBwOeBfxiaqv8L2teDWHjruzYt4lJdY1GexOqig2E08bsJt6H2lgpm4peOI4g6My_PaNxHOVOENTmlnN3iYI_NI2NTSGy_8B1hakT0SEJ0-o3jFdSFrRvHZW4Nv3Tce0MNiC2Mxac2FJf2Q7oMNSXNXF3fOK_d9VvNZvUpUU-cVyMerJwOwcKvsfly5]-->
    </g>
</svg>
