<svg xmlns="http://www.w3.org/2000/svg" contentStyleType="text/css"
     height="664px" preserveAspectRatio="none" style="width:637px;height:664px;background:#FFFFFF;" version="1.1"
     viewBox="0 0 637 664" width="637px" zoomAndPan="magnify">
    <defs/>
    <g>
        <ellipse cx="254.1289" cy="20" fill="#222222" rx="10" ry="10" style="stroke:#222222;stroke-width:1.0;"/>
        <polygon fill="#F1F1F1"
                 points="161.3513,50,346.9065,50,358.9065,62,346.9065,74,161.3513,74,149.3513,62,161.3513,50"
                 style="stroke:#181818;stroke-width:0.5;"/>
        <text fill="#000000" font-family="sans-serif" font-size="11" lengthAdjust="spacing" textLength="185.5552"
              x="161.3513" y="65.8081">Scheduled Categorization Service
        </text>
        <text fill="#000000" font-family="sans-serif" font-size="11" lengthAdjust="spacing" textLength="19.2178"
              x="130.1335" y="59.4058">Yes
        </text>
        <text fill="#000000" font-family="sans-serif" font-size="11" lengthAdjust="spacing" textLength="14.9585"
              x="358.9065" y="59.4058">No
        </text>
        <rect fill="#F1F1F1" height="33.9688" rx="3.5" ry="3.5" style="stroke:#181818;stroke-width:0.5;"
              width="125.3164" x="34.7715" y="84"/>
        <text fill="#000000" font-family="sans-serif" font-size="12" lengthAdjust="spacing" textLength="105.3164"
              x="44.7715" y="105.1387">Keyword Analysis
        </text>
        <rect fill="#F1F1F1" height="33.9688" rx="3.5" ry="3.5" style="stroke:#181818;stroke-width:0.5;"
              width="172.8594" x="11" y="137.9688"/>
        <text fill="#000000" font-family="sans-serif" font-size="12" lengthAdjust="spacing" textLength="152.8594" x="21"
              y="159.1074">Complaint Categorization
        </text>
        <rect fill="#F1F1F1" height="33.9688" rx="3.5" ry="3.5" style="stroke:#181818;stroke-width:0.5;" width="167.082"
              x="13.8887" y="206.9375"/>
        <text fill="#000000" font-family="sans-serif" font-size="12" lengthAdjust="spacing" textLength="147.082"
              x="23.8887" y="228.0762">Department Assignment
        </text>
        <rect fill="#F1F1F1" height="33.9688" rx="3.5" ry="3.5" style="stroke:#181818;stroke-width:0.5;"
              width="134.6094" x="30.125" y="275.9063"/>
        <text fill="#000000" font-family="sans-serif" font-size="12" lengthAdjust="spacing" textLength="114.6094"
              x="40.125" y="297.0449">Officer Assignment
        </text>
        <rect fill="#F1F1F1" height="33.9688" rx="3.5" ry="3.5" style="stroke:#181818;stroke-width:0.5;" width="52.584"
              x="384.5361" y="84"/>
        <text fill="#000000" font-family="sans-serif" font-size="12" lengthAdjust="spacing" textLength="32.584"
              x="394.5361" y="105.1387">Login
        </text>
        <polygon fill="#F1F1F1"
                 points="358.656,137.9688,463.0002,137.9688,475.0002,149.9688,463.0002,161.9688,358.656,161.9688,346.656,149.9688,358.656,137.9688"
                 style="stroke:#181818;stroke-width:0.5;"/>
        <text fill="#000000" font-family="sans-serif" font-size="11" lengthAdjust="spacing" textLength="104.3442"
              x="358.656" y="153.7769">Passenger / Officer
        </text>
        <text fill="#000000" font-family="sans-serif" font-size="11" lengthAdjust="spacing" textLength="56.8477"
              x="289.8083" y="147.3745">Passenger
        </text>
        <text fill="#000000" font-family="sans-serif" font-size="11" lengthAdjust="spacing" textLength="36.7974"
              x="475.0002" y="147.3745">Officer
        </text>
        <rect fill="#F1F1F1" height="33.9688" rx="3.5" ry="3.5" style="stroke:#181818;stroke-width:0.5;"
              width="136.1152" x="237.8594" y="232.7734"/>
        <text fill="#000000" font-family="sans-serif" font-size="12" lengthAdjust="spacing" textLength="116.1152"
              x="247.8594" y="253.9121">File New Complaint
        </text>
        <polygon fill="#F1F1F1"
                 points="261.1301,171.9688,350.7039,171.9688,362.7039,183.9688,350.7039,195.9688,261.1301,195.9688,249.1301,183.9688,261.1301,171.9688"
                 style="stroke:#181818;stroke-width:0.5;"/>
        <text fill="#000000" font-family="sans-serif" font-size="11" lengthAdjust="spacing" textLength="19.2178"
              x="309.917" y="206.1792">Yes
        </text>
        <text fill="#000000" font-family="sans-serif" font-size="11" lengthAdjust="spacing" textLength="89.5737"
              x="261.1301" y="187.7769">New Complaint?
        </text>
        <rect fill="#F1F1F1" height="33.9688" rx="3.5" ry="3.5" style="stroke:#181818;stroke-width:0.5;"
              width="157.7012" x="227.0664" y="325.7422"/>
        <text fill="#000000" font-family="sans-serif" font-size="12" lengthAdjust="spacing" textLength="137.7012"
              x="237.0664" y="346.8809">Check Past Complaints
        </text>
        <rect fill="#F1F1F1" height="33.9688" rx="3.5" ry="3.5" style="stroke:#181818;stroke-width:0.5;"
              width="164.1406" x="223.8467" y="394.7109"/>
        <text fill="#000000" font-family="sans-serif" font-size="12" lengthAdjust="spacing" textLength="144.1406"
              x="233.8467" y="415.8496">Check Complaint Status
        </text>
        <rect fill="#F1F1F1" height="33.9688" rx="3.5" ry="3.5" style="stroke:#181818;stroke-width:0.5;"
              width="119.5742" x="246.1299" y="463.6797"/>
        <text fill="#000000" font-family="sans-serif" font-size="12" lengthAdjust="spacing" textLength="99.5742"
              x="256.1299" y="484.8184">Check Messages
        </text>
        <rect fill="#F1F1F1" height="33.9688" rx="3.5" ry="3.5" style="stroke:#181818;stroke-width:0.5;" width="178.25"
              x="426.6143" y="171.9688"/>
        <text fill="#000000" font-family="sans-serif" font-size="12" lengthAdjust="spacing" textLength="158.25"
              x="436.6143" y="193.1074">View Assigned Complaints
        </text>
        <rect fill="#F1F1F1" height="33.9688" rx="3.5" ry="3.5" style="stroke:#181818;stroke-width:0.5;"
              width="167.5039" x="431.9873" y="301.7422"/>
        <text fill="#000000" font-family="sans-serif" font-size="12" lengthAdjust="spacing" textLength="147.5039"
              x="441.9873" y="322.8809">Check Complaint Details
        </text>
        <rect fill="#F1F1F1" height="33.9688" rx="3.5" ry="3.5" style="stroke:#181818;stroke-width:0.5;"
              width="106.1035" x="462.6875" y="370.7109"/>
        <text fill="#000000" font-family="sans-serif" font-size="12" lengthAdjust="spacing" textLength="86.1035"
              x="472.6875" y="391.8496">Add Messages
        </text>
        <rect fill="#F1F1F1" height="33.9688" rx="3.5" ry="3.5" style="stroke:#181818;stroke-width:0.5;"
              width="131.1699" x="450.1543" y="439.6797"/>
        <text fill="#000000" font-family="sans-serif" font-size="12" lengthAdjust="spacing" textLength="111.1699"
              x="460.1543" y="460.8184">Process Complaint
        </text>
        <polygon fill="#F1F1F1"
                 points="457.855,240.9375,573.6235,240.9375,585.6235,252.9375,573.6235,264.9375,457.855,264.9375,445.855,252.9375,457.855,240.9375"
                 style="stroke:#181818;stroke-width:0.5;"/>
        <text fill="#000000" font-family="sans-serif" font-size="11" lengthAdjust="spacing" textLength="14.9585"
              x="519.7393" y="275.1479">No
        </text>
        <text fill="#000000" font-family="sans-serif" font-size="11" lengthAdjust="spacing" textLength="115.7686"
              x="457.855" y="256.7456">Complaint Resolved?
        </text>
        <rect fill="#F1F1F1" height="33.9688" rx="3.5" ry="3.5" style="stroke:#181818;stroke-width:0.5;"
              width="170.6855" x="430.3965" y="517.6484"/>
        <text fill="#000000" font-family="sans-serif" font-size="12" lengthAdjust="spacing" textLength="150.6855"
              x="440.3965" y="538.7871">Update Complaint Status
        </text>
        <polygon fill="#F1F1F1"
                 points="410.8281,557.6172,422.8281,569.6172,410.8281,581.6172,398.8281,569.6172,410.8281,557.6172"
                 style="stroke:#181818;stroke-width:0.5;"/>
        <polygon fill="#F1F1F1"
                 points="254.1289,587.6172,266.1289,599.6172,254.1289,611.6172,242.1289,599.6172,254.1289,587.6172"
                 style="stroke:#181818;stroke-width:0.5;"/>
        <ellipse cx="254.1289" cy="642.6172" fill="none" rx="11" ry="11" style="stroke:#222222;stroke-width:1.0;"/>
        <ellipse cx="254.1289" cy="642.6172" fill="#222222" rx="6" ry="6" style="stroke:#222222;stroke-width:1.0;"/>
        <line style="stroke:#454645;stroke-width:1.0;" x1="97.4297" x2="97.4297" y1="117.9688" y2="137.9688"/>
        <polygon fill="#454645" points="93.4297,127.9688,97.4297,137.9688,101.4297,127.9688,97.4297,131.9688"
                 style="stroke:#454645;stroke-width:1.0;"/>
        <line style="stroke:#454645;stroke-width:1.0;" x1="97.4297" x2="97.4297" y1="171.9375" y2="206.9375"/>
        <polygon fill="#454645" points="93.4297,196.9375,97.4297,206.9375,101.4297,196.9375,97.4297,200.9375"
                 style="stroke:#454645;stroke-width:1.0;"/>
        <line style="stroke:#454645;stroke-width:1.0;" x1="97.4297" x2="97.4297" y1="240.9063" y2="275.9063"/>
        <polygon fill="#454645" points="93.4297,265.9063,97.4297,275.9063,101.4297,265.9063,97.4297,269.9063"
                 style="stroke:#454645;stroke-width:1.0;"/>
        <line style="stroke:#454645;stroke-width:1.0;" x1="305.917" x2="305.917" y1="195.9688" y2="232.7734"/>
        <polygon fill="#454645" points="301.917,222.7734,305.917,232.7734,309.917,222.7734,305.917,226.7734"
                 style="stroke:#454645;stroke-width:1.0;"/>
        <line style="stroke:#454645;stroke-width:1.0;" x1="305.917" x2="305.917" y1="266.7422" y2="278.7422"/>
        <line style="stroke:#454645;stroke-width:1.0;" x1="305.917" x2="385.9746" y1="278.7422" y2="278.7422"/>
        <polygon fill="#454645" points="381.9746,241.3555,385.9746,231.3555,389.9746,241.3555,385.9746,237.3555"
                 style="stroke:#454645;stroke-width:1.0;"/>
        <line style="stroke:#454645;stroke-width:1.0;" x1="385.9746" x2="385.9746" y1="183.9688" y2="278.7422"/>
        <line style="stroke:#454645;stroke-width:1.0;" x1="385.9746" x2="362.7039" y1="183.9688" y2="183.9688"/>
        <polygon fill="#454645" points="372.7039,179.9688,362.7039,183.9688,372.7039,187.9688,368.7039,183.9688"
                 style="stroke:#454645;stroke-width:1.0;"/>
        <line style="stroke:#454645;stroke-width:1.0;" x1="249.1301" x2="225.8594" y1="183.9688" y2="183.9688"/>
        <polygon fill="#454645" points="221.8594,227.3555,225.8594,237.3555,229.8594,227.3555,225.8594,231.3555"
                 style="stroke:#454645;stroke-width:1.0;"/>
        <line style="stroke:#454645;stroke-width:1.0;" x1="225.8594" x2="225.8594" y1="183.9688" y2="290.7422"/>
        <line style="stroke:#454645;stroke-width:1.0;" x1="225.8594" x2="305.917" y1="290.7422" y2="290.7422"/>
        <line style="stroke:#454645;stroke-width:1.0;" x1="305.917" x2="305.917" y1="290.7422" y2="325.7422"/>
        <polygon fill="#454645" points="301.917,315.7422,305.917,325.7422,309.917,315.7422,305.917,319.7422"
                 style="stroke:#454645;stroke-width:1.0;"/>
        <line style="stroke:#454645;stroke-width:1.0;" x1="305.917" x2="305.917" y1="359.7109" y2="394.7109"/>
        <polygon fill="#454645" points="301.917,384.7109,305.917,394.7109,309.917,384.7109,305.917,388.7109"
                 style="stroke:#454645;stroke-width:1.0;"/>
        <line style="stroke:#454645;stroke-width:1.0;" x1="305.917" x2="305.917" y1="428.6797" y2="463.6797"/>
        <polygon fill="#454645" points="301.917,453.6797,305.917,463.6797,309.917,453.6797,305.917,457.6797"
                 style="stroke:#454645;stroke-width:1.0;"/>
        <line style="stroke:#454645;stroke-width:1.0;" x1="515.7393" x2="515.7393" y1="335.7109" y2="370.7109"/>
        <polygon fill="#454645" points="511.7393,360.7109,515.7393,370.7109,519.7393,360.7109,515.7393,364.7109"
                 style="stroke:#454645;stroke-width:1.0;"/>
        <line style="stroke:#454645;stroke-width:1.0;" x1="515.7393" x2="515.7393" y1="404.6797" y2="439.6797"/>
        <polygon fill="#454645" points="511.7393,429.6797,515.7393,439.6797,519.7393,429.6797,515.7393,433.6797"
                 style="stroke:#454645;stroke-width:1.0;"/>
        <line style="stroke:#454645;stroke-width:1.0;" x1="515.7393" x2="515.7393" y1="264.9375" y2="301.7422"/>
        <polygon fill="#454645" points="511.7393,291.7422,515.7393,301.7422,519.7393,291.7422,515.7393,295.7422"
                 style="stroke:#454645;stroke-width:1.0;"/>
        <line style="stroke:#454645;stroke-width:1.0;" x1="515.7393" x2="515.7393" y1="473.6484" y2="485.6484"/>
        <line style="stroke:#454645;stroke-width:1.0;" x1="515.7393" x2="611.4912" y1="485.6484" y2="485.6484"/>
        <polygon fill="#454645" points="607.4912,379.293,611.4912,369.293,615.4912,379.293,611.4912,375.293"
                 style="stroke:#454645;stroke-width:1.0;"/>
        <line style="stroke:#454645;stroke-width:1.0;" x1="611.4912" x2="611.4912" y1="252.9375" y2="485.6484"/>
        <line style="stroke:#454645;stroke-width:1.0;" x1="611.4912" x2="585.6235" y1="252.9375" y2="252.9375"/>
        <polygon fill="#454645" points="595.6235,248.9375,585.6235,252.9375,595.6235,256.9375,591.6235,252.9375"
                 style="stroke:#454645;stroke-width:1.0;"/>
        <line style="stroke:#454645;stroke-width:1.0;" x1="445.855" x2="419.9873" y1="252.9375" y2="252.9375"/>
        <polygon fill="#454645" points="415.9873,365.293,419.9873,375.293,423.9873,365.293,419.9873,369.293"
                 style="stroke:#454645;stroke-width:1.0;"/>
        <line style="stroke:#454645;stroke-width:1.0;" x1="419.9873" x2="419.9873" y1="252.9375" y2="497.6484"/>
        <line style="stroke:#454645;stroke-width:1.0;" x1="419.9873" x2="515.7393" y1="497.6484" y2="497.6484"/>
        <line style="stroke:#454645;stroke-width:1.0;" x1="515.7393" x2="515.7393" y1="497.6484" y2="517.6484"/>
        <polygon fill="#454645" points="511.7393,507.6484,515.7393,517.6484,519.7393,507.6484,515.7393,511.6484"
                 style="stroke:#454645;stroke-width:1.0;"/>
        <line style="stroke:#454645;stroke-width:1.0;" x1="515.7393" x2="515.7393" y1="205.9375" y2="240.9375"/>
        <polygon fill="#454645" points="511.7393,230.9375,515.7393,240.9375,519.7393,230.9375,515.7393,234.9375"
                 style="stroke:#454645;stroke-width:1.0;"/>
        <line style="stroke:#454645;stroke-width:1.0;" x1="346.656" x2="305.917" y1="149.9688" y2="149.9688"/>
        <line style="stroke:#454645;stroke-width:1.0;" x1="305.917" x2="305.917" y1="149.9688" y2="171.9688"/>
        <polygon fill="#454645" points="301.917,161.9688,305.917,171.9688,309.917,161.9688,305.917,165.9688"
                 style="stroke:#454645;stroke-width:1.0;"/>
        <line style="stroke:#454645;stroke-width:1.0;" x1="475.0002" x2="515.7393" y1="149.9688" y2="149.9688"/>
        <line style="stroke:#454645;stroke-width:1.0;" x1="515.7393" x2="515.7393" y1="149.9688" y2="171.9688"/>
        <polygon fill="#454645" points="511.7393,161.9688,515.7393,171.9688,519.7393,161.9688,515.7393,165.9688"
                 style="stroke:#454645;stroke-width:1.0;"/>
        <line style="stroke:#454645;stroke-width:1.0;" x1="305.917" x2="305.917" y1="497.6484" y2="569.6172"/>
        <line style="stroke:#454645;stroke-width:1.0;" x1="305.917" x2="398.8281" y1="569.6172" y2="569.6172"/>
        <polygon fill="#454645" points="388.8281,565.6172,398.8281,569.6172,388.8281,573.6172,392.8281,569.6172"
                 style="stroke:#454645;stroke-width:1.0;"/>
        <line style="stroke:#454645;stroke-width:1.0;" x1="515.7393" x2="515.7393" y1="551.6172" y2="569.6172"/>
        <line style="stroke:#454645;stroke-width:1.0;" x1="515.7393" x2="422.8281" y1="569.6172" y2="569.6172"/>
        <polygon fill="#454645" points="432.8281,565.6172,422.8281,569.6172,432.8281,573.6172,428.8281,569.6172"
                 style="stroke:#454645;stroke-width:1.0;"/>
        <line style="stroke:#454645;stroke-width:1.0;" x1="410.8281" x2="410.8281" y1="117.9688" y2="137.9688"/>
        <polygon fill="#454645" points="406.8281,127.9688,410.8281,137.9688,414.8281,127.9688,410.8281,131.9688"
                 style="stroke:#454645;stroke-width:1.0;"/>
        <line style="stroke:#454645;stroke-width:1.0;" x1="149.3513" x2="97.4297" y1="62" y2="62"/>
        <line style="stroke:#454645;stroke-width:1.0;" x1="97.4297" x2="97.4297" y1="62" y2="84"/>
        <polygon fill="#454645" points="93.4297,74,97.4297,84,101.4297,74,97.4297,78"
                 style="stroke:#454645;stroke-width:1.0;"/>
        <line style="stroke:#454645;stroke-width:1.0;" x1="358.9065" x2="410.8281" y1="62" y2="62"/>
        <line style="stroke:#454645;stroke-width:1.0;" x1="410.8281" x2="410.8281" y1="62" y2="84"/>
        <polygon fill="#454645" points="406.8281,74,410.8281,84,414.8281,74,410.8281,78"
                 style="stroke:#454645;stroke-width:1.0;"/>
        <line style="stroke:#454645;stroke-width:1.0;" x1="97.4297" x2="97.4297" y1="309.875" y2="599.6172"/>
        <line style="stroke:#454645;stroke-width:1.0;" x1="97.4297" x2="242.1289" y1="599.6172" y2="599.6172"/>
        <polygon fill="#454645" points="232.1289,595.6172,242.1289,599.6172,232.1289,603.6172,236.1289,599.6172"
                 style="stroke:#454645;stroke-width:1.0;"/>
        <line style="stroke:#454645;stroke-width:1.0;" x1="410.8281" x2="410.8281" y1="581.6172" y2="599.6172"/>
        <line style="stroke:#454645;stroke-width:1.0;" x1="410.8281" x2="266.1289" y1="599.6172" y2="599.6172"/>
        <polygon fill="#454645" points="276.1289,595.6172,266.1289,599.6172,276.1289,603.6172,272.1289,599.6172"
                 style="stroke:#454645;stroke-width:1.0;"/>
        <line style="stroke:#454645;stroke-width:1.0;" x1="254.1289" x2="254.1289" y1="30" y2="50"/>
        <polygon fill="#454645" points="250.1289,40,254.1289,50,258.1289,40,254.1289,44"
                 style="stroke:#454645;stroke-width:1.0;"/>
        <line style="stroke:#454645;stroke-width:1.0;" x1="254.1289" x2="254.1289" y1="611.6172" y2="631.6172"/>
        <polygon fill="#454645" points="250.1289,621.6172,254.1289,631.6172,258.1289,621.6172,254.1289,625.6172"
                 style="stroke:#454645;stroke-width:1.0;"/><!--SRC=[TL4zRuCm4Dtv5TSDfkxfK26YBlsAYbgfeuiFEDNOoEU0qbzV6qmWLSfWeNllteTzurhi40RwiaAxX9smBg4Qqh9gKHuLIYY4myPO-X6EZ8OIxK0LPk0tDQIVo5a2_jizucaqLaAkXJenyTqyBapNAq7Q_H6Ay1vxRzcXntDcQdJuZTXhNNidUm6WOeJqnGJJtPDfo0k5l0V1ZBhnx5k8Uql4CnHsnfPK4C0HpidkCo3ULda8d0jAI8HQJjl1kMYn-WQlx5REr3WYQ-lI2NVSGi_8B1hafSkIDZ0-o9lETSFDNoZ7vAlo6x9H0yeOVxwJAmdsw0IfvJroAJSHfj71cifF_c_xtal_TbTBUHhLoNooC_ql]-->
    </g>
</svg>
